<svg width="24" height="24" viewBox="0 0 24 24" fill="none" xmlns="http://www.w3.org/2000/svg">
<path d="M2 16.9C2 15.5906 2 14.9359 2.29472 14.455C2.45963 14.1859 2.68589 13.9596 2.955 13.7947C3.43594 13.5 4.09063 13.5 5.4 13.5H6.5C8.38562 13.5 9.32843 13.5 9.91421 14.0858C10.5 14.6716 10.5 15.6144 10.5 17.5V18.6C10.5 19.9094 10.5 20.5641 10.2053 21.045C10.0404 21.3141 9.81411 21.5404 9.545 21.7053C9.06406 22 8.40937 22 7.1 22C5.13594 22 4.15391 22 3.4325 21.5579C3.02884 21.3106 2.68945 20.9712 2.44208 20.5675C2 19.8461 2 18.8641 2 16.9Z" stroke="#F2F2F2" stroke-width="2"/>
<path d="M13.5 5.4C13.5 4.09063 13.5 3.43594 13.7947 2.955C13.9596 2.68589 14.1859 2.45963 14.455 2.29472C14.9359 2 15.5906 2 16.9 2C18.8641 2 19.8461 2 20.5675 2.44208C20.9712 2.68945 21.3106 3.02884 21.5579 3.4325C22 4.15391 22 5.13594 22 7.1C22 8.40937 22 9.06406 21.7053 9.545C21.5404 9.81411 21.3141 10.0404 21.045 10.2053C20.5641 10.5 19.9094 10.5 18.6 10.5H17.5C15.6144 10.5 14.6716 10.5 14.0858 9.91421C13.5 9.32843 13.5 8.38562 13.5 6.5V5.4Z" stroke="#F2F2F2" stroke-width="2"/>
<path d="M16.5 6.25C16.5 5.73459 16.5 5.47689 16.6291 5.29493C16.6747 5.23072 16.7307 5.17466 16.7949 5.12911C16.9769 5 17.2346 5 17.75 5C18.2654 5 18.5231 5 18.7051 5.12911C18.7693 5.17466 18.8253 5.23072 18.8709 5.29493C19 5.47689 19 5.73459 19 6.25C19 6.76541 19 7.02311 18.8709 7.20507C18.8253 7.26928 18.7693 7.32534 18.7051 7.37089C18.5231 7.5 18.2654 7.5 17.75 7.5C17.2346 7.5 16.9769 7.5 16.7949 7.37089C16.7307 7.32534 16.6747 7.26928 16.6291 7.20507C16.5 7.02311 16.5 6.76541 16.5 6.25Z" fill="#F2F2F2"/>
<path d="M12.5 22C12.5 22.5523 12.9477 23 13.5 23C14.0523 23 14.5 22.5523 14.5 22H12.5ZM14.3889 13.8371L14.9444 14.6685L14.9444 14.6685L14.3889 13.8371ZM13.8371 14.3889L13.0056 13.8333L13.0056 13.8333L13.8371 14.3889ZM19 12.5H17V14.5H19V12.5ZM12.5 19V22H14.5V19H12.5ZM17 12.5C16.3186 12.5 15.7322 12.4988 15.2557 12.5473C14.7625 12.5974 14.2772 12.709 13.8333 13.0056L14.9444 14.6685C15.005 14.6281 15.123 14.5711 15.4581 14.537C15.8099 14.5012 16.277 14.5 17 14.5V12.5ZM14.5 17C14.5 16.277 14.5012 15.8099 14.537 15.4581C14.5711 15.123 14.6281 15.005 14.6685 14.9444L13.0056 13.8333C12.709 14.2772 12.5974 14.7625 12.5473 15.2557C12.4988 15.7322 12.5 16.3186 12.5 17H14.5ZM13.8333 13.0056C13.5057 13.2245 13.2245 13.5057 13.0056 13.8333L14.6685 14.9444C14.7415 14.8352 14.8352 14.7415 14.9444 14.6685L13.8333 13.0056Z" fill="#F2F2F2"/>
<path d="M23 13.5C23 12.9477 22.5523 12.5 22 12.5C21.4477 12.5 21 12.9477 21 13.5H23ZM20.7654 21.8478L21.148 22.7716L21.1481 22.7716L20.7654 21.8478ZM21.8478 20.7654L20.9239 20.3827L20.9239 20.3827L21.8478 20.7654ZM17 23H19V21H17V23ZM23 17V13.5H21V17H23ZM19 23C19.4523 23 19.8415 23.0005 20.1624 22.9787C20.4922 22.9561 20.8221 22.9066 21.148 22.7716L20.3827 20.9239C20.3411 20.9411 20.2542 20.9677 20.0262 20.9833C19.7893 20.9995 19.4796 21 19 21V23ZM21 19C21 19.4796 20.9995 19.7893 20.9833 20.0262C20.9677 20.2542 20.9411 20.3411 20.9239 20.3827L22.7716 21.1481C22.9066 20.8221 22.9561 20.4922 22.9787 20.1624C23.0005 19.8415 23 19.4523 23 19H21ZM21.1481 22.7716C21.8831 22.4672 22.4672 21.8831 22.7716 21.1481L20.9239 20.3827C20.8224 20.6277 20.6277 20.8224 20.3827 20.9239L21.1481 22.7716Z" fill="#F2F2F2"/>
<path d="M2 7.1C2 5.13594 2 4.15391 2.44208 3.4325C2.68945 3.02884 3.02884 2.68945 3.4325 2.44208C4.15391 2 5.13594 2 7.1 2C8.40937 2 9.06406 2 9.545 2.29472C9.81411 2.45963 10.0404 2.68589 10.2053 2.955C10.5 3.43594 10.5 4.09063 10.5 5.4V6.5C10.5 8.38562 10.5 9.32843 9.91421 9.91421C9.32843 10.5 8.38562 10.5 6.5 10.5H5.4C4.09063 10.5 3.43594 10.5 2.955 10.2053C2.68589 10.0404 2.45963 9.81411 2.29472 9.545C2 9.06406 2 8.40937 2 7.1Z" stroke="#F2F2F2" stroke-width="2"/>
<path d="M5 6.25C5 5.73459 5 5.47689 5.12911 5.29493C5.17466 5.23072 5.23072 5.17466 5.29493 5.12911C5.47689 5 5.73459 5 6.25 5C6.76541 5 7.02311 5 7.20507 5.12911C7.26928 5.17466 7.32534 5.23072 7.37089 5.29493C7.5 5.47689 7.5 5.73459 7.5 6.25C7.5 6.76541 7.5 7.02311 7.37089 7.20507C7.32534 7.26928 7.26928 7.32534 7.20507 7.37089C7.02311 7.5 6.76541 7.5 6.25 7.5C5.73459 7.5 5.47689 7.5 5.29493 7.37089C5.23072 7.32534 5.17466 7.26928 5.12911 7.20507C5 7.02311 5 6.76541 5 6.25Z" fill="#F2F2F2"/>
<path d="M5 17.75C5 17.2346 5 16.9769 5.12911 16.7949C5.17466 16.7307 5.23072 16.6747 5.29493 16.6291C5.47689 16.5 5.73459 16.5 6.25 16.5C6.76541 16.5 7.02311 16.5 7.20507 16.6291C7.26928 16.6747 7.32534 16.7307 7.37089 16.7949C7.5 16.9769 7.5 17.2346 7.5 17.75C7.5 18.2654 7.5 18.5231 7.37089 18.7051C7.32534 18.7693 7.26928 18.8253 7.20507 18.8709C7.02311 19 6.76541 19 6.25 19C5.73459 19 5.47689 19 5.29493 18.8709C5.23072 18.8253 5.17466 18.7693 5.12911 18.7051C5 18.5231 5 18.2654 5 17.75Z" fill="#F2F2F2"/>
<path d="M16 17.75C16 17.0478 16 16.6967 16.1685 16.4444C16.2415 16.3352 16.3352 16.2415 16.4444 16.1685C16.6967 16 17.0478 16 17.75 16C18.4522 16 18.8033 16 19.0556 16.1685C19.1648 16.2415 19.2585 16.3352 19.3315 16.4444C19.5 16.6967 19.5 17.0478 19.5 17.75C19.5 18.4522 19.5 18.8033 19.3315 19.0556C19.2585 19.1648 19.1648 19.2585 19.0556 19.3315C18.8033 19.5 18.4522 19.5 17.75 19.5C17.0478 19.5 16.6967 19.5 16.4444 19.3315C16.3352 19.2585 16.2415 19.1648 16.1685 19.0556C16 18.8033 16 18.4522 16 17.75Z" fill="#F2F2F2"/>
</svg>
