<svg width="20" height="17" viewBox="0 0 20 17" fill="none" xmlns="http://www.w3.org/2000/svg">
<path d="M1.39535 12.3674V2.56997H0V12.3691L1.39535 12.3674ZM20 12.3674V2.51282H18.6047V12.3682L20 12.3674ZM17.494 0.169854C16.4344 0.205021 15.0512 0.307883 13.986 0.609436L14.386 1.87367C15.2698 1.62399 16.5014 1.52201 17.5423 1.48772L17.494 0.169854ZM13.986 0.609436C13.0605 0.871426 12.0195 1.38398 11.2074 1.82796L11.907 2.96911C12.6977 2.53656 13.6233 2.08995 14.386 1.87367L13.986 0.609436ZM2.4986 1.53695C3.39721 1.58882 4.41488 1.68993 5.17116 1.87895L5.52651 0.603282C4.63349 0.379974 3.50233 0.273595 2.58419 0.219967L2.4986 1.53695ZM5.17116 1.87895C6.06605 2.10225 7.16744 2.59107 8.07628 3.04472L8.72744 1.87895C7.80186 1.41563 6.58419 0.86791 5.52744 0.604161L5.17116 1.87895ZM11.8419 16.4001C12.7637 15.9359 13.906 15.4242 14.8288 15.1939L14.4735 13.9191C13.3851 14.1899 12.1237 14.764 11.186 15.2369L11.8419 16.4001ZM14.8288 15.1939C15.5758 15.0075 16.5795 14.9055 17.4716 14.8527L17.3842 13.5366C16.4726 13.5912 15.3572 13.6975 14.4726 13.9182L14.8288 15.1939ZM8.81395 15.2361C7.87628 14.764 6.61581 14.1899 5.52651 13.9182L5.17116 15.193C6.09395 15.4242 7.23628 15.9359 8.15721 16.4001L8.81395 15.2361ZM5.52651 13.9182C4.64279 13.6984 3.52651 13.5912 2.61488 13.5366L2.52837 14.8527C3.42047 14.9055 4.42419 15.0075 5.17023 15.1939L5.52651 13.9182ZM18.6047 12.3682C18.6047 12.9713 18.0763 13.4962 17.3842 13.5366L17.4716 14.8527C18.8428 14.7719 20 13.7178 20 12.3674L18.6047 12.3682ZM20 2.51282C20 1.22573 18.9163 0.1215 17.494 0.168096L17.5423 1.48772C18.1144 1.46838 18.6047 1.91235 18.6047 2.51106L20 2.51282ZM0 12.3674C0 13.7178 1.15721 14.7727 2.52837 14.8545L2.61488 13.5366C1.92279 13.4962 1.39535 12.9696 1.39535 12.3674H0ZM11.186 15.2369C10.8207 15.4199 10.4135 15.5156 10 15.5156C9.58651 15.5156 9.17931 15.419 8.81395 15.2361L8.15814 16.4001C8.72541 16.6846 9.35781 16.8333 10 16.8333C10.6422 16.8333 11.2746 16.6846 11.8419 16.4001L11.186 15.2369ZM11.2074 1.8262C10.8322 2.0312 10.4083 2.14343 9.97494 2.1525C9.54161 2.16157 9.11286 2.06718 8.72837 1.87807L8.07628 3.04472C8.66981 3.3383 9.33227 3.48436 10.002 3.47098C10.6718 3.45761 11.3271 3.28436 11.907 2.96735L11.2074 1.8262ZM1.39535 2.56997C1.39535 1.95719 1.90884 1.50266 2.4986 1.53695L2.58419 0.219967C1.13488 0.136446 0 1.25298 0 2.56997H1.39535Z" fill="white"/>
<path d="M10 3.01042V16.1979" stroke="white" stroke-width="1.5"/>
</svg>
