<svg width="16" height="16" viewBox="0 0 16 16" fill="none" xmlns="http://www.w3.org/2000/svg">
<path fill-rule="evenodd" clip-rule="evenodd" d="M0.841105 0.0361333C0.682985 -0.0201056 0.509295 -0.0103901 0.358244 0.0631427C0.207194 0.136676 0.0911556 0.268002 0.0356573 0.428232C-0.0198409 0.588462 -0.0102532 0.764471 0.0623112 0.917537C0.134876 1.0706 0.264473 1.18819 0.422592 1.24443L0.642375 1.32208C1.20488 1.52261 1.57456 1.65488 1.84655 1.79055C2.1017 1.9177 2.21369 2.02095 2.2878 2.13017C2.36358 2.24281 2.42253 2.39811 2.45621 2.70787C2.48989 3.03213 2.49158 3.45452 2.49158 4.08597V6.3063C2.49158 8.81676 2.54463 9.64448 3.27471 10.4244C4.00395 11.2043 5.17781 11.2043 7.5272 11.2043H11.9919C13.3064 11.2043 13.964 11.2043 14.428 10.8203C14.8929 10.4364 15.0259 9.78442 15.2912 8.48056L15.7122 6.41126C16.0044 4.92649 16.1501 4.18496 15.7762 3.6926C15.4023 3.20023 14.1257 3.20023 12.7068 3.20023H4.37892C4.02872 3.20023 3.74596 2.919 3.71175 2.57048C3.66628 2.14639 3.5686 1.75983 3.33113 1.40827C3.09198 1.05329 2.77367 0.826304 2.40232 0.641135C2.05538 0.468765 1.61413 0.311755 1.09541 0.126585L0.841105 0.0361333ZM11.3477 5.29683C11.6003 5.54088 11.6104 5.94535 11.3696 6.20135L8.96379 8.7613C8.90481 8.82403 8.83386 8.87397 8.75527 8.9081C8.67667 8.94222 8.59205 8.95982 8.50654 8.95982C8.42103 8.95982 8.33641 8.94222 8.25782 8.9081C8.17922 8.87397 8.10828 8.82403 8.04929 8.7613L7.0868 7.73732C7.02715 7.67697 6.98002 7.60514 6.94819 7.52605C6.91637 7.44697 6.90049 7.36222 6.90148 7.27682C6.90248 7.19141 6.92034 7.10707 6.954 7.02877C6.98767 6.95047 7.03646 6.87979 7.0975 6.82089C7.15855 6.762 7.23061 6.71608 7.30943 6.68585C7.38826 6.65561 7.47227 6.64167 7.55649 6.64485C7.64072 6.64803 7.72347 6.66826 7.79986 6.70435C7.87625 6.74044 7.94474 6.79166 8.00129 6.85499C8.27512 7.14634 8.73795 7.14632 9.01175 6.85496L10.4551 5.31902C10.5706 5.19618 10.7295 5.12484 10.8969 5.12068C11.0643 5.11652 11.2264 5.17988 11.3477 5.29683Z" fill="url(#paint0_linear_34_575)"/>
<path d="M4.59677 13.4401C4.93177 13.4401 5.25304 13.5749 5.48992 13.815C5.7268 14.055 5.85988 14.3806 5.85988 14.72C5.85988 15.0595 5.7268 15.3851 5.48992 15.6251C5.25304 15.8652 4.93177 16 4.59677 16C4.26177 16 3.94049 15.8652 3.70361 15.6251C3.46673 15.3851 3.33365 15.0595 3.33365 14.72C3.33365 14.3806 3.46673 14.055 3.70361 13.815C3.94049 13.5749 4.26177 13.4401 4.59677 13.4401ZM12.1755 13.4401C12.5105 13.4401 12.8317 13.5749 13.0686 13.815C13.3055 14.055 13.4386 14.3806 13.4386 14.72C13.4386 15.0595 13.3055 15.3851 13.0686 15.6251C12.8317 15.8652 12.5105 16 12.1755 16C11.8405 16 11.5192 15.8652 11.2823 15.6251C11.0454 15.3851 10.9124 15.0595 10.9124 14.72C10.9124 14.3806 11.0454 14.055 11.2823 13.815C11.5192 13.5749 11.8405 13.4401 12.1755 13.4401Z" fill="url(#paint1_linear_34_575)"/>
<defs>
<linearGradient id="paint0_linear_34_575" x1="0" y1="5.60217" x2="16" y2="5.60217" gradientUnits="userSpaceOnUse">
<stop stop-color="#EB0076"/>
<stop offset="1" stop-color="#FB65CF"/>
</linearGradient>
<linearGradient id="paint1_linear_34_575" x1="3.33365" y1="14.72" x2="13.4386" y2="14.72" gradientUnits="userSpaceOnUse">
<stop stop-color="#EB0076"/>
<stop offset="1" stop-color="#FB65CF"/>
</linearGradient>
</defs>
</svg>
