<svg width="21" height="20" viewBox="0 0 21 20" fill="none" xmlns="http://www.w3.org/2000/svg">
<path fill-rule="evenodd" clip-rule="evenodd" d="M1.43187 0.0451667C1.23158 -0.025132 1.01157 -0.0129877 0.820237 0.0789284C0.628904 0.170844 0.48192 0.335003 0.411622 0.53529C0.341323 0.735578 0.353468 0.955588 0.445384 1.14692C0.5373 1.33826 0.701458 1.48524 0.901745 1.55554L1.18014 1.6526C1.89266 1.90326 2.36092 2.06859 2.70544 2.23819C3.02864 2.39712 3.1705 2.52618 3.26437 2.66272C3.36036 2.80351 3.43503 2.99764 3.4777 3.38483C3.52036 3.79016 3.52249 4.31815 3.52249 5.10747V7.88288C3.52249 11.021 3.58969 12.0556 4.51447 13.0305C5.43819 14.0054 6.92509 14.0054 9.90104 14.0054H15.5564C17.2214 14.0054 18.0545 14.0054 18.6422 13.5254C19.231 13.0454 19.3995 12.2305 19.7355 10.6007L20.2688 8.01408C20.639 6.15811 20.8235 5.2312 20.3499 4.61574C19.8763 4.00029 18.2593 4.00029 16.462 4.00029H5.11393C5.10939 3.73738 5.09409 3.47476 5.06806 3.2131C5.01047 2.68298 4.88673 2.19979 4.58594 1.76033C4.28301 1.31661 3.87982 1.03288 3.40943 0.801418C2.96997 0.585956 2.41105 0.389693 1.754 0.158231L1.43187 0.0451667ZM12.0557 6.40024C12.2678 6.40024 12.4713 6.48453 12.6213 6.63455C12.7714 6.78458 12.8556 6.98806 12.8556 7.20023V8.53353H14.189C14.4011 8.53353 14.6046 8.61782 14.7546 8.76784C14.9047 8.91787 14.9889 9.12135 14.9889 9.33352C14.9889 9.54569 14.9047 9.74917 14.7546 9.89919C14.6046 10.0492 14.4011 10.1335 14.189 10.1335H12.8556V11.4668C12.8556 11.679 12.7714 11.8825 12.6213 12.0325C12.4713 12.1825 12.2678 12.2668 12.0557 12.2668C11.8435 12.2668 11.64 12.1825 11.49 12.0325C11.34 11.8825 11.2557 11.679 11.2557 11.4668V10.1335H9.92237C9.7102 10.1335 9.50672 10.0492 9.3567 9.89919C9.20667 9.74917 9.12239 9.54569 9.12239 9.33352C9.12239 9.12135 9.20667 8.91787 9.3567 8.76784C9.50672 8.61782 9.7102 8.53353 9.92237 8.53353H11.2557V7.20023C11.2557 6.98806 11.34 6.78458 11.49 6.63455C11.64 6.48453 11.8435 6.40024 12.0557 6.40024Z" fill="white"/>
<path d="M6.18908 16.8C6.61342 16.8 7.02038 16.9686 7.32043 17.2687C7.62048 17.5687 7.78905 17.9757 7.78905 18.4C7.78905 18.8244 7.62048 19.2313 7.32043 19.5314C7.02038 19.8314 6.61342 20 6.18908 20C5.76474 20 5.35778 19.8314 5.05773 19.5314C4.75768 19.2313 4.58911 18.8244 4.58911 18.4C4.58911 17.9757 4.75768 17.5687 5.05773 17.2687C5.35778 16.9686 5.76474 16.8 6.18908 16.8ZM15.7889 16.8C16.2132 16.8 16.6202 16.9686 16.9202 17.2687C17.2203 17.5687 17.3889 17.9757 17.3889 18.4C17.3889 18.8244 17.2203 19.2313 16.9202 19.5314C16.6202 19.8314 16.2132 20 15.7889 20C15.3646 20 14.9576 19.8314 14.6575 19.5314C14.3575 19.2313 14.1889 18.8244 14.1889 18.4C14.1889 17.9757 14.3575 17.5687 14.6575 17.2687C14.9576 16.9686 15.3646 16.8 15.7889 16.8Z" fill="white"/>
</svg>
