<svg width="22" height="22" viewBox="0 0 22 22" fill="none" xmlns="http://www.w3.org/2000/svg">
<path d="M6.74057 11.0013H6.74957M10.7316 11.0013H10.7406M14.7316 11.0013H14.7406" stroke="#9E9FB4" stroke-width="2" stroke-linecap="round" stroke-linejoin="round"/>
<path d="M10.7406 21.0013C16.2636 21.0013 20.7406 16.5243 20.7406 11.0013C20.7406 5.47834 16.2636 1.00134 10.7406 1.00134C5.21757 1.00134 0.74057 5.47834 0.74057 11.0013C0.74057 12.6013 1.11657 14.1133 1.78357 15.4543C1.96157 15.8103 2.02057 16.2173 1.91757 16.6023L1.32257 18.8283C1.26364 19.0486 1.26369 19.2806 1.32273 19.5008C1.38176 19.7211 1.49769 19.9219 1.65888 20.0832C1.82008 20.2445 2.02087 20.3606 2.2411 20.4198C2.46132 20.4789 2.69324 20.4791 2.91357 20.4203L5.13957 19.8243C5.52598 19.7271 5.9346 19.7744 6.28857 19.9573C7.67149 20.646 9.19568 21.0034 10.7406 21.0013Z" stroke="#9E9FB4" stroke-width="1.5"/>
</svg>
