<svg width="12" height="13" viewBox="0 0 12 13" fill="none" xmlns="http://www.w3.org/2000/svg">
<g id="crown">
<path id="Vector" d="M7.00829 6.67676L7.00831 6.6768C7.01698 6.69237 7.02442 6.70572 7.03104 6.71753C7.04245 6.72017 7.05522 6.72309 7.06988 6.72644C7.07007 6.72649 7.07026 6.72653 7.07045 6.72657L7.18339 6.75213C7.19382 6.75449 7.20427 6.75685 7.21474 6.75922C7.40914 6.80313 7.60749 6.84794 7.76075 6.90821C7.9316 6.9754 8.17376 7.11026 8.26731 7.41006L8.26746 7.41054C8.35905 7.70508 8.24263 7.95287 8.14596 8.10635C8.05734 8.24705 7.92356 8.40335 7.79012 8.55924C7.78335 8.56715 7.77657 8.57507 7.76981 8.58298C7.7698 8.58299 7.76979 8.58301 7.76977 8.58302L7.69257 8.67328L7.69181 8.67418L7.68732 8.67945C7.67508 8.69383 7.66482 8.70589 7.65578 8.7166C7.65723 8.73294 7.65899 8.75164 7.66114 8.77452L7.66122 8.77538L7.66143 8.77752L7.67322 8.89718L7.6733 8.89802C7.67436 8.909 7.67543 8.91999 7.6765 8.93097C7.69671 9.13903 7.71673 9.34517 7.7095 9.51103C7.70188 9.68619 7.65992 9.96578 7.4083 10.1561L7.10669 9.75748L7.4094 10.1553C7.15082 10.3521 6.8661 10.308 6.69258 10.2583C6.53323 10.2127 6.34639 10.1264 6.16321 10.0417C6.15454 10.0377 6.14589 10.0337 6.13724 10.0297L7.00829 6.67676ZM7.00829 6.67676L6.94949 6.57116L6.94942 6.57104M7.00829 6.67676L6.94942 6.57104M6.94942 6.57104C6.94448 6.56217 6.93954 6.5533 6.9346 6.54443C6.83369 6.36319 6.73277 6.18194 6.6319 6.05016C6.5259 5.91166 6.32538 5.7006 6.00026 5.7006C5.67514 5.7006 5.47461 5.91166 5.36861 6.05016C5.26775 6.18194 5.16683 6.36319 5.06591 6.54443C5.06097 6.5533 5.05603 6.56217 5.05109 6.57104L5.05102 6.57116M6.94942 6.57104L5.05102 6.57116M5.05102 6.57116L4.99223 6.67676L4.9922 6.6768M5.05102 6.57116L4.9922 6.6768M4.9922 6.6768C4.98354 6.69237 4.97609 6.70573 4.96946 6.71753M4.9922 6.6768L4.96946 6.71753M4.32722 8.89856L4.32727 8.89802L4.33909 8.77752L4.33927 8.77562L4.33938 8.77445C4.34153 8.75161 4.34329 8.73292 4.34473 8.71659C4.33572 8.70591 4.32549 8.6939 4.31332 8.6796L4.30871 8.67418L4.30794 8.67328L4.23074 8.58302C4.23073 8.58301 4.23072 8.58299 4.23071 8.58298C4.22395 8.57508 4.21718 8.56717 4.21041 8.55927C4.07697 8.40336 3.94323 8.24711 3.85464 8.10656C3.75827 7.95366 3.64133 7.70577 3.73305 7.41114L4.32722 8.89856ZM4.32722 8.89856C4.32627 8.90833 4.32533 8.9181 4.32438 8.92786M4.32722 8.89856L4.32438 8.92786M4.96946 6.71753C4.95806 6.72017 4.94529 6.72309 4.93063 6.72644C4.93045 6.72649 4.93026 6.72653 4.93007 6.72657L4.81713 6.75213L4.96946 6.71753ZM4.32438 8.92786C4.30403 9.13722 4.28388 9.34453 4.29125 9.5114M4.32438 8.92786L4.29125 9.5114M4.29125 9.5114C4.29897 9.68628 4.34091 9.96519 4.59138 10.1555M4.29125 9.5114L4.59138 10.1555M4.59138 10.1555C4.84989 10.352 5.13447 10.308 5.30793 10.2583M4.59138 10.1555L5.30793 10.2583M5.30793 10.2583C5.46728 10.2127 5.65413 10.1264 5.8373 10.0417M5.30793 10.2583L5.8373 10.0417M5.8373 10.0417C5.84597 10.0377 5.85463 10.0337 5.86328 10.0297L5.8373 10.0417ZM11.4051 5.92874L11.4051 5.9288L11.2677 7.3903C11.1532 8.60571 11.0705 9.47517 10.9323 10.1335C10.7959 10.7834 10.6178 11.159 10.3582 11.4243L10.3577 11.4248C10.106 11.6827 9.78101 11.8333 9.22562 11.9145C8.64982 11.9988 7.89512 12 6.81624 12H5.18428C4.1057 12 3.35115 11.9988 2.77526 11.9145C2.21981 11.8333 1.89433 11.6827 1.6419 11.4245C1.38219 11.1588 1.20423 10.7832 1.06792 10.1334C0.929829 9.47507 0.847317 8.60577 0.732802 7.3903L0.732793 7.3902L0.594809 5.92874C0.594805 5.92869 0.594801 5.92865 0.594796 5.9286C0.539876 5.34521 0.502294 4.94093 0.500098 4.65129C0.498236 4.40565 0.525951 4.33087 0.526163 4.32498C0.532076 4.31851 0.538856 4.31288 0.54631 4.30827C0.581956 4.33148 0.636186 4.37351 0.713974 4.44622C0.906413 4.6261 1.1558 4.90911 1.52196 5.32583L1.53554 5.3413C1.70813 5.53794 1.86253 5.71385 2.00104 5.84193C2.14359 5.97375 2.33124 6.11556 2.5812 6.15553L2.58313 6.15583C2.80196 6.18995 3.02596 6.15424 3.22332 6.05382C3.44402 5.94249 3.58347 5.75685 3.68607 5.58974C3.78509 5.42847 3.88832 5.21733 4.00511 4.97845C4.00988 4.9687 4.01467 4.95891 4.01948 4.94907L4.01967 4.94868L5.36181 2.19833C5.36182 2.19831 5.36183 2.19829 5.36184 2.19828C5.6096 1.6907 5.77246 1.3597 5.91428 1.14915C5.95028 1.0957 5.97883 1.05934 6.00026 1.03494C6.02169 1.05934 6.05024 1.0957 6.08624 1.14915C6.22806 1.3597 6.39092 1.6907 6.63868 2.19828C6.63869 2.19829 6.63869 2.19831 6.6387 2.19833L7.98073 4.94844L7.98084 4.94868L7.98986 4.96718C8.10875 5.21115 8.21356 5.42625 8.31438 5.59023C8.41753 5.758 8.55739 5.94332 8.77828 6.05436C8.97581 6.15407 9.19772 6.19016 9.41756 6.15581L9.41931 6.15553C9.66927 6.11556 9.85692 5.97375 9.99948 5.84193C10.138 5.71385 10.2924 5.53794 10.465 5.3413L10.4786 5.32583C10.8447 4.90911 11.0941 4.6261 11.2865 4.44622C11.3643 4.37351 11.4186 4.33148 11.4542 4.30827C11.4615 4.31278 11.4681 4.31824 11.4739 4.32453C11.4743 4.33091 11.5018 4.40616 11.4999 4.65117C11.4976 4.94091 11.46 5.3453 11.4051 5.92874ZM6.0497 0.988595C6.04968 0.988802 6.04805 0.98998 6.04482 0.991505C6.0481 0.98915 6.04971 0.988387 6.0497 0.988595ZM5.95569 0.991505C5.95247 0.98998 5.95083 0.988802 5.95082 0.988595C5.95081 0.988387 5.95242 0.98915 5.95569 0.991505ZM6.03188 9.98119L6.13687 10.0296H5.86364L5.96864 9.98119C5.96889 9.98107 5.96913 9.98096 5.96938 9.98085C5.98079 9.97563 5.99099 9.97098 6.00026 9.96676C6.00953 9.97098 6.01972 9.97563 6.03114 9.98085C6.03139 9.98096 6.03163 9.98107 6.03188 9.98119Z" fill="#FFCC00" stroke="#FFCC00"/>
</g>
</svg>
