<svg width="16" height="16" viewBox="0 0 16 16" fill="none" xmlns="http://www.w3.org/2000/svg">
<path fill-rule="evenodd" clip-rule="evenodd" d="M15.8705 7.3008L15.6873 9.2496C15.385 12.4592 15.2338 14.0648 14.2874 15.032C13.3426 16 11.925 16 9.08832 16H6.91237C4.07645 16 2.65888 16 1.71251 15.032C0.76613 14.064 0.615734 12.4592 0.313342 9.2496L0.129347 7.3008C-0.0146495 5.7712 -0.0866476 5.0056 0.175746 4.6896C0.241708 4.60721 0.323441 4.53881 0.416161 4.4884C0.508881 4.43798 0.610724 4.40657 0.715732 4.396C1.09652 4.3624 1.57411 4.9064 2.53009 5.9944C3.02447 6.5576 3.27167 6.8384 3.54686 6.8824C3.70056 6.90636 3.85791 6.88116 3.99645 6.8104C4.25164 6.6824 4.42044 6.3344 4.76043 5.6392L6.54998 1.972C7.19157 0.6576 7.51236 0 8.00034 0C8.48833 0 8.80912 0.6576 9.45071 1.972L11.2403 5.6392C11.5795 6.3352 11.749 6.6824 12.0042 6.8104C12.145 6.8816 12.3002 6.9064 12.4538 6.8824C12.729 6.8384 12.9762 6.5576 13.4706 5.9944C14.4266 4.9064 14.9042 4.3624 15.285 4.396C15.39 4.40657 15.4918 4.43798 15.5845 4.4884C15.6772 4.53881 15.759 4.60721 15.8249 4.6896C16.0865 5.0056 16.0145 5.7712 15.8705 7.3008ZM8.76192 8.56L8.68353 8.4192C8.37953 7.8736 8.22754 7.6008 8.00034 7.6008C7.77315 7.6008 7.62115 7.8736 7.31716 8.4192L7.23876 8.56C7.15237 8.7152 7.10917 8.792 7.04197 8.8432C6.97397 8.8944 6.88997 8.9136 6.72198 8.952L6.56998 8.9864C5.9796 9.12 5.6844 9.1864 5.61401 9.4128C5.54361 9.6384 5.7452 9.8736 6.14759 10.344L6.25159 10.4656C6.36599 10.6 6.42358 10.6664 6.44918 10.7488C6.47478 10.832 6.46598 10.9208 6.44918 11.0992L6.43319 11.2624C6.37239 11.8896 6.34199 12.204 6.52518 12.3432C6.70918 12.4832 6.98597 12.356 7.53876 12.1008L7.68115 12.0352C7.83875 11.9632 7.91715 11.9272 8.00034 11.9272C8.08354 11.9272 8.16194 11.9632 8.31954 12.0352L8.46193 12.1008C9.01472 12.356 9.29151 12.4832 9.47551 12.3432C9.6595 12.204 9.6283 11.8896 9.5675 11.2616L9.5515 11.0992C9.53471 10.9208 9.52591 10.832 9.5515 10.7496C9.5771 10.6664 9.6347 10.6 9.7491 10.4656L9.8531 10.344C10.2555 9.8736 10.4571 9.6384 10.3867 9.412C10.3163 9.1864 10.0211 9.12 9.43071 8.9864L9.27871 8.952C9.11072 8.9136 9.02672 8.8944 8.95872 8.8432C8.89152 8.7928 8.84832 8.7152 8.76192 8.56Z" fill="url(#paint0_linear_365_66)"/>
<defs>
<linearGradient id="paint0_linear_365_66" x1="0" y1="8" x2="16" y2="8" gradientUnits="userSpaceOnUse">
<stop stop-color="#EBB004"/>
<stop offset="1" stop-color="#FB3A1A"/>
</linearGradient>
</defs>
</svg>
