<svg width="16" height="16" viewBox="0 0 16 16" fill="none" xmlns="http://www.w3.org/2000/svg">
<path fill-rule="evenodd" clip-rule="evenodd" d="M6.07355 0.960202C5.94773 1.07405 5.81551 1.18062 5.67754 1.2794C5.43914 1.4394 5.17113 1.5498 4.88952 1.6058C4.76712 1.6298 4.63912 1.6402 4.38391 1.6602C3.74309 1.7114 3.42229 1.737 3.15508 1.8314C2.84955 1.93927 2.57205 2.11418 2.34294 2.34328C2.11383 2.57239 1.93892 2.84988 1.83105 3.1554C1.73664 3.4226 1.71104 3.7434 1.65984 4.3842C1.65111 4.55361 1.63295 4.72241 1.60544 4.8898C1.54944 5.1714 1.43904 5.4394 1.27903 5.6778C1.20943 5.7818 1.12623 5.8794 0.959824 6.0738C0.543013 6.5634 0.334208 6.8082 0.211805 7.0642C-0.0706017 7.6562 -0.0706017 8.3442 0.211805 8.9362C0.334208 9.1922 0.543013 9.437 0.959824 9.9266C1.12623 10.121 1.20943 10.2186 1.27903 10.3226C1.43904 10.561 1.54944 10.829 1.60544 11.1106C1.62944 11.233 1.63984 11.361 1.65984 11.6162C1.71104 12.257 1.73664 12.5778 1.83105 12.845C1.93892 13.1505 2.11383 13.428 2.34294 13.6571C2.57205 13.8862 2.84955 14.0611 3.15508 14.169C3.42229 14.2634 3.74309 14.289 4.38391 14.3402C4.63912 14.3602 4.76712 14.3706 4.88952 14.3946C5.17113 14.4506 5.43914 14.5618 5.67754 14.721C5.78154 14.7906 5.87915 14.8738 6.07355 15.0402C6.56316 15.457 6.80797 15.6658 7.06398 15.7882C7.65599 16.0706 8.34401 16.0706 8.93602 15.7882C9.19203 15.6658 9.43684 15.457 9.92645 15.0402C10.1209 14.8738 10.2185 14.7906 10.3225 14.721C10.5609 14.561 10.8289 14.4506 11.1105 14.3946C11.2329 14.3706 11.3609 14.3602 11.6161 14.3402C12.2569 14.289 12.5777 14.2634 12.8449 14.169C13.1504 14.0611 13.4279 13.8862 13.6571 13.6571C13.8862 13.428 14.0611 13.1505 14.169 12.845C14.2634 12.5778 14.289 12.257 14.3402 11.6162C14.3602 11.361 14.3706 11.233 14.3946 11.1106C14.4506 10.829 14.5618 10.561 14.721 10.3226C14.7906 10.2186 14.8738 10.121 15.0402 9.9266C15.457 9.437 15.6658 9.1922 15.7882 8.9362C16.0706 8.3442 16.0706 7.6562 15.7882 7.0642C15.6658 6.8082 15.457 6.5634 15.0402 6.0738C14.9263 5.94798 14.8197 5.81577 14.721 5.6778C14.5611 5.43931 14.4502 5.17147 14.3946 4.8898C14.3671 4.72241 14.3489 4.55361 14.3402 4.3842C14.289 3.7434 14.2634 3.4226 14.169 3.1554C14.0611 2.84988 13.8862 2.57239 13.6571 2.34328C13.4279 2.11418 13.1504 1.93927 12.8449 1.8314C12.5777 1.737 12.2569 1.7114 11.6161 1.6602C11.4467 1.65148 11.2779 1.63331 11.1105 1.6058C10.8288 1.55019 10.561 1.43925 10.3225 1.2794C10.1846 1.18041 10.0524 1.07385 9.92645 0.960202C9.43684 0.543402 9.19203 0.334602 8.93602 0.212202C8.64376 0.0725065 8.32393 0 8 0C7.67607 0 7.35624 0.0725065 7.06398 0.212202C6.80797 0.334602 6.56316 0.543402 6.07355 0.960202ZM11.4985 6.2906C11.6116 6.16685 11.6726 6.00426 11.6688 5.83668C11.665 5.66909 11.5967 5.50942 11.4782 5.39089C11.3597 5.27236 11.2 5.2041 11.0324 5.20032C10.8648 5.19654 10.7022 5.25753 10.5785 5.3706L7.9748 7.9742C7.26978 8.67921 6.12678 8.67939 5.42154 7.9746V7.9746C5.29778 7.86153 5.13519 7.80054 4.9676 7.80432C4.80001 7.8081 4.64033 7.87636 4.5218 7.99489C4.40326 8.11342 4.33501 8.27309 4.33123 8.44068C4.32745 8.60826 4.38844 8.77085 4.50151 8.8946L6.23756 10.6306C6.35964 10.7524 6.52508 10.8209 6.69757 10.8209C6.87005 10.8209 7.03549 10.7524 7.15758 10.6306L11.4985 6.2906Z" fill="url(#paint0_linear_34_570)"/>
<defs>
<linearGradient id="paint0_linear_34_570" x1="0" y1="8" x2="16" y2="8" gradientUnits="userSpaceOnUse">
<stop stop-color="#2AE1A0"/>
<stop offset="1" stop-color="#029568"/>
</linearGradient>
</defs>
</svg>
