<svg width="23" height="19" viewBox="0 0 23 19" fill="none" xmlns="http://www.w3.org/2000/svg">
<path fill-rule="evenodd" clip-rule="evenodd" d="M4.97144 1.89172C3.31244 2.64972 2.09744 4.45372 2.09744 6.60472C2.09744 8.80172 2.99744 10.4957 4.28544 11.9477C5.34844 13.1437 6.63444 14.1357 7.88844 15.1017C8.18644 15.3317 8.48244 15.5607 8.77344 15.7897C9.29944 16.2047 9.76844 16.5677 10.2214 16.8327C10.6734 17.0967 11.0374 17.2177 11.3474 17.2177C11.6574 17.2177 12.0214 17.0977 12.4734 16.8327C12.9264 16.5677 13.3954 16.2047 13.9214 15.7897C14.2114 15.5597 14.5084 15.3317 14.8064 15.1027C16.0604 14.1347 17.3464 13.1437 18.4094 11.9477C19.6984 10.4957 20.5974 8.80172 20.5974 6.60472C20.5974 4.45472 19.3824 2.64972 17.7234 1.89172C16.1114 1.15472 13.9454 1.34972 11.8874 3.48872C11.8175 3.56131 11.7336 3.61904 11.6408 3.65848C11.548 3.69791 11.4483 3.71824 11.3474 3.71824C11.2466 3.71824 11.1468 3.69791 11.0541 3.65848C10.9613 3.61904 10.8774 3.56131 10.8074 3.48872C8.74944 1.34972 6.58344 1.15472 4.97144 1.89172ZM11.3474 1.92772C9.03544 -0.14228 6.44644 -0.43228 4.34744 0.52672C2.13344 1.54172 0.597443 3.89372 0.597443 6.60572C0.597443 9.27072 1.70744 11.3047 3.16444 12.9447C4.33044 14.2577 5.75744 15.3567 7.01844 16.3267C7.30444 16.5467 7.58144 16.7607 7.84444 16.9687C8.35744 17.3727 8.90744 17.8027 9.46444 18.1287C10.0214 18.4537 10.6574 18.7187 11.3474 18.7187C12.0374 18.7187 12.6734 18.4537 13.2304 18.1287C13.7884 17.8027 14.3374 17.3727 14.8504 16.9687C15.1243 16.7529 15.3997 16.5389 15.6764 16.3267C16.9364 15.3567 18.3644 14.2567 19.5304 12.9447C20.9874 11.3047 22.0974 9.27072 22.0974 6.60572C22.0974 3.89372 20.5624 1.54172 18.3474 0.52872C16.2484 -0.43128 13.6594 -0.14128 11.3474 1.92772Z" fill="#9E9FB4"/>
</svg>
