<svg width="20" height="20" viewBox="0 0 20 20" fill="none" xmlns="http://www.w3.org/2000/svg">
<path d="M9.84787 5.75146V9.75146L12.3479 12.2515" stroke="#9E9FB4" stroke-width="1.5" stroke-linecap="round" stroke-linejoin="round"/>
<path d="M2.18588 4.62248L1.43588 4.62548C1.43666 4.82318 1.51548 5.01257 1.65518 5.15246C1.79489 5.29235 1.98418 5.37142 2.18188 5.37248L2.18588 4.62248ZM4.72788 5.38448C4.82637 5.38494 4.92398 5.36599 5.01515 5.32872C5.10632 5.29146 5.18926 5.2366 5.25923 5.16728C5.3292 5.09796 5.38483 5.01554 5.42295 4.92472C5.46106 4.8339 5.48092 4.73647 5.48138 4.63798C5.48184 4.53948 5.46289 4.44187 5.42562 4.3507C5.38836 4.25953 5.3335 4.17659 5.26418 4.10662C5.19486 4.03665 5.11244 3.98102 5.02162 3.94291C4.9308 3.90479 4.83337 3.88494 4.73488 3.88448L4.72788 5.38448ZM2.92288 2.07248C2.92235 1.97398 2.90243 1.87656 2.86425 1.78577C2.82608 1.69497 2.77039 1.61259 2.70038 1.54332C2.63036 1.47404 2.54739 1.41924 2.45619 1.38204C2.365 1.34483 2.26737 1.32595 2.16888 1.32648C2.07038 1.327 1.97296 1.34692 1.88217 1.3851C1.79137 1.42327 1.70899 1.47896 1.63972 1.54897C1.57044 1.61899 1.51564 1.70196 1.47844 1.79316C1.44123 1.88435 1.42235 1.98198 1.42288 2.08048L2.92288 2.07248ZM1.67488 8.53648C1.68925 8.43846 1.68405 8.33856 1.6596 8.24256C1.63515 8.14655 1.59192 8.05635 1.5324 7.97715C1.47289 7.89794 1.39828 7.83132 1.31287 7.78112C1.22747 7.73091 1.13296 7.69813 1.03481 7.68465C0.936664 7.67118 0.83682 7.67728 0.741044 7.70261C0.645269 7.72794 0.555461 7.772 0.476807 7.83223C0.398153 7.89247 0.332212 7.96769 0.282792 8.05355C0.233371 8.13941 0.201452 8.23421 0.188876 8.33248L1.67488 8.53648ZM16.7099 2.88948C12.8899 -0.930524 6.71688 -0.970524 2.92188 2.82548L3.98188 3.88548C7.18188 0.686476 12.4049 0.705476 15.6499 3.94948L16.7099 2.88948ZM2.98588 16.6135C6.80588 20.4335 12.9789 20.4735 16.7739 16.6775L15.7139 15.6175C12.5139 18.8165 7.29088 18.7975 4.04588 15.5535L2.98588 16.6135ZM16.7739 16.6775C20.5689 12.8825 20.5299 6.70948 16.7099 2.88948L15.6499 3.94948C18.8939 7.19448 18.9129 12.4175 15.7139 15.6175L16.7739 16.6775ZM2.92188 2.82548L1.65488 4.09148L2.71588 5.15148L3.98188 3.88548L2.92188 2.82548ZM2.18188 5.37248L4.72788 5.38448L4.73488 3.88448L2.18988 3.87248L2.18188 5.37248ZM2.93588 4.61848L2.92288 2.07248L1.42288 2.08048L1.43588 4.62548L2.93588 4.61848ZM0.187875 8.33148C-0.0175839 9.83405 0.128054 11.3638 0.613355 12.8006C1.09866 14.2374 1.91041 15.5422 2.98488 16.6125L4.04488 15.5525C3.1341 14.6458 2.44598 13.5402 2.03458 12.3227C1.62318 11.1051 1.49972 9.80878 1.67388 8.53548L0.187875 8.33148Z" fill="#9E9FB4"/>
</svg>
