<svg width="13" height="15" viewBox="0 0 13 15" fill="none" xmlns="http://www.w3.org/2000/svg">
<path d="M0.488372 6.35005L0.97479 6.30838C0.96358 6.1833 0.904618 6.06735 0.810151 5.9846C0.715684 5.90186 0.592974 5.85868 0.467508 5.86405C0.342042 5.86941 0.223464 5.9229 0.136404 6.01341C0.0493443 6.10391 0.000493986 6.22447 0 6.35005H0.488372ZM11.7118 7.53712L11.2521 10.1939L12.2152 10.3606L12.6742 7.70382L11.7118 7.53712ZM7.15953 13.5233H4.13228V14.5H7.15953V13.5233ZM3.53907 12.9782L3.01032 6.86187L2.03684 6.94587L2.56623 13.0622L3.53907 12.9782ZM11.2521 10.1939C10.9219 12.1018 9.20157 13.5233 7.15953 13.5233V14.5C9.65088 14.5 11.7997 12.762 12.2152 10.3606L11.2521 10.1939ZM7.16604 3.00699L6.73432 5.64094L7.69804 5.79852L8.12976 3.16522L7.16604 3.00699ZM3.21544 6.35787L4.15246 5.55043L3.51432 4.8107L2.5786 5.61815L3.21544 6.35787ZM5.85655 2.92364L6.16651 1.7294L5.22102 1.48457L4.91107 2.67815L5.85655 2.92364ZM6.63404 1.49499L6.72846 1.52559L7.02734 0.595731L6.93293 0.565127L6.63404 1.49499ZM5.38707 4.12438C5.59047 3.7441 5.74807 3.34103 5.85655 2.92364L4.91107 2.67815C4.82204 3.02108 4.69264 3.35223 4.52558 3.66466L5.38707 4.12438ZM6.72846 1.52559C6.82137 1.55375 6.90566 1.60492 6.97351 1.67436C7.04136 1.74381 7.09056 1.82926 7.11655 1.9228L8.06204 1.67796C7.99476 1.42499 7.86462 1.19313 7.68372 1.00392C7.50283 0.814714 7.27704 0.674302 7.02734 0.595731L6.72846 1.52559ZM6.16651 1.7294C6.17949 1.6825 6.20252 1.63899 6.234 1.60188C6.26549 1.56477 6.30467 1.53496 6.34883 1.51452L5.92493 0.634801C5.57851 0.801499 5.31804 1.11015 5.22102 1.48457L6.16651 1.7294ZM6.34883 1.51452C6.43795 1.47196 6.53995 1.46497 6.63404 1.49499L6.93293 0.565127C6.60038 0.458544 6.23964 0.483479 5.92493 0.634801L6.34883 1.51452ZM7.75144 6.83842H11.1245V5.86168H7.75144V6.83842ZM1.60772 13.6248L0.97479 6.30838L0.0019535 6.39238L0.633581 13.7088L1.60772 13.6248ZM0.976743 13.6945V6.35005H0V13.6945H0.976743ZM0.633581 13.7088C0.631594 13.6852 0.635202 13.6614 0.642915 13.6389C0.650627 13.6164 0.662926 13.5958 0.679031 13.5784C0.695136 13.5609 0.714695 13.547 0.736465 13.5375C0.758235 13.528 0.78174 13.5232 0.805488 13.5233V14.5C1.27823 14.5 1.64809 14.095 1.60772 13.6248L0.633581 13.7088ZM8.12976 3.16522C8.21098 2.67016 8.18791 2.16359 8.06204 1.67796L7.11655 1.92345C7.20833 2.27724 7.22518 2.6463 7.16604 3.00699L8.12976 3.16522ZM4.13228 13.5233C3.98317 13.523 3.83956 13.4669 3.72976 13.366C3.61996 13.2651 3.55193 13.1268 3.53907 12.9782L2.56623 13.0622C2.60011 13.4543 2.77973 13.8195 3.06965 14.0857C3.35956 14.3518 3.73871 14.4997 4.13228 14.5V13.5233ZM4.15246 5.55043C4.59525 5.16884 5.0719 4.71498 5.38772 4.12438L4.52558 3.66466C4.30028 4.08726 3.94149 4.44345 3.51432 4.8107L4.15246 5.55043ZM12.6742 7.70382C12.7134 7.47786 12.7028 7.24606 12.643 7.02465C12.5831 6.80325 12.4757 6.5976 12.328 6.42211C12.1804 6.24661 11.9962 6.10552 11.7883 6.00871C11.5804 5.9119 11.3538 5.86172 11.1245 5.86168V6.83842C11.4937 6.83842 11.7756 7.17182 11.7118 7.53712L12.6742 7.70382ZM0.805488 13.5233C0.900558 13.5233 0.976743 13.6001 0.976743 13.6945H0C0 14.1386 0.360093 14.5 0.805488 14.5V13.5233ZM6.73432 5.64094C6.71005 5.78848 6.71816 5.93953 6.7581 6.08362C6.79804 6.22771 6.86885 6.36139 6.96561 6.47538C7.06238 6.58937 7.18279 6.68094 7.31848 6.74374C7.45418 6.80655 7.60191 6.83842 7.75144 6.83842V5.86168C7.74349 5.86172 7.73564 5.86065 7.72843 5.8573C7.72122 5.85396 7.71485 5.84906 7.70975 5.84297C7.70465 5.83688 7.70096 5.82973 7.69893 5.82205C7.69691 5.81437 7.6966 5.80633 7.69804 5.79852L6.73432 5.64094ZM3.01032 6.86187C3.00227 6.76757 3.01608 6.6727 3.05185 6.58508C3.08763 6.49746 3.14369 6.41959 3.21544 6.35787L2.5773 5.6175C2.38847 5.78031 2.24101 5.98563 2.14705 6.21658C2.05309 6.44752 2.01531 6.69747 2.03684 6.94587L3.01032 6.86187Z" fill="#9E9FB4"/>
</svg>
