<svg width="14" height="15" viewBox="0 0 14 15" fill="none" xmlns="http://www.w3.org/2000/svg">
<path d="M12.9062 8.64995L12.4197 8.69162C12.431 8.8167 12.4899 8.93265 12.5844 9.0154C12.6788 9.09814 12.8016 9.14132 12.927 9.13595C13.0525 9.13059 13.1711 9.0771 13.2581 8.98659C13.3452 8.89609 13.394 8.77553 13.3945 8.64995H12.9062ZM1.68273 7.46288L2.14245 4.80614L1.17938 4.63944L0.720307 7.29618L1.68273 7.46288ZM6.235 1.47674H9.26226V0.5H6.235V1.47674ZM9.85546 2.02177L10.3842 8.13813L11.3577 8.05413L10.8283 1.93777L9.85546 2.02177ZM2.14245 4.80614C2.47259 2.89823 4.19296 1.47674 6.235 1.47674V0.5C3.74365 0.5 1.59482 2.23795 1.17938 4.63944L2.14245 4.80614ZM6.22849 11.993L6.66021 9.35906L5.69649 9.20148L5.26477 11.8348L6.22849 11.993ZM10.1791 8.64213L9.24207 9.44958L9.88021 10.1893L10.8159 9.38185L10.1791 8.64213ZM7.53798 12.0764L7.22802 13.2706L8.17351 13.5154L8.48347 12.3219L7.53798 12.0764ZM6.76049 13.505L6.66607 13.4744L6.36719 14.4043L6.46161 14.4349L6.76049 13.505ZM8.00747 10.8756C7.80406 11.2559 7.64646 11.659 7.53798 12.0764L8.48347 12.3219C8.57249 11.9789 8.70189 11.6478 8.86895 11.3353L8.00747 10.8756ZM6.66607 13.4744C6.57316 13.4463 6.48887 13.3951 6.42102 13.3256C6.35318 13.2562 6.30397 13.1707 6.27798 13.0772L5.33249 13.322C5.39977 13.575 5.52991 13.8069 5.71081 13.9961C5.8917 14.1853 6.11749 14.3257 6.36719 14.4043L6.66607 13.4744ZM7.22802 13.2706C7.21504 13.3175 7.19201 13.361 7.16053 13.3981C7.12904 13.4352 7.08986 13.465 7.0457 13.4855L7.46961 14.3652C7.81602 14.1985 8.07649 13.8899 8.17351 13.5154L7.22802 13.2706ZM7.0457 13.4855C6.95658 13.528 6.85458 13.535 6.76049 13.505L6.46161 14.4349C6.79415 14.5415 7.15489 14.5165 7.46961 14.3652L7.0457 13.4855ZM5.64309 8.16158L2.27007 8.16158V9.13832L5.64309 9.13832V8.16158ZM11.7868 1.37516L12.4197 8.69162L13.3926 8.60762L12.761 1.29116L11.7868 1.37516ZM12.4178 1.30549L12.4178 8.64995H13.3945L13.3945 1.30549H12.4178ZM12.761 1.29116C12.7629 1.31483 12.7593 1.33865 12.7516 1.36111C12.7439 1.38357 12.7316 1.40418 12.7155 1.42163C12.6994 1.43908 12.6798 1.45299 12.6581 1.46248C12.6363 1.47197 12.6128 1.47683 12.589 1.47674V0.5C12.1163 0.5 11.7464 0.905023 11.7868 1.37516L12.761 1.29116ZM5.26477 11.8348C5.18355 12.3298 5.20662 12.8364 5.33249 13.322L6.27798 13.0765C6.1862 12.7228 6.16935 12.3537 6.22849 11.993L5.26477 11.8348ZM9.26226 1.47674C9.41136 1.477 9.55497 1.5331 9.66477 1.63398C9.77457 1.73486 9.8426 1.87321 9.85546 2.02177L10.8283 1.93777C10.7944 1.54566 10.6148 1.1805 10.3249 0.914332C10.035 0.648165 9.65582 0.500331 9.26226 0.5V1.47674ZM9.24207 9.44958C8.79928 9.83116 8.32263 10.285 8.00681 10.8756L8.86895 11.3353C9.09426 10.9127 9.45305 10.5566 9.88021 10.1893L9.24207 9.44958ZM0.720307 7.29618C0.681103 7.52214 0.691778 7.75394 0.751581 7.97535C0.811384 8.19675 0.918869 8.4024 1.06651 8.57789C1.21415 8.75339 1.39837 8.89448 1.60628 8.99129C1.81418 9.08809 2.04074 9.13828 2.27007 9.13832V8.16158C1.90087 8.16158 1.61891 7.82818 1.68273 7.46288L0.720307 7.29618ZM12.589 1.47674C12.494 1.47674 12.4178 1.39991 12.4178 1.30549H13.3945C13.3945 0.861395 13.0344 0.5 12.589 0.5V1.47674ZM6.66021 9.35906C6.68449 9.21152 6.67637 9.06047 6.63643 8.91638C6.59649 8.77229 6.52568 8.63861 6.42892 8.52462C6.33215 8.41063 6.21174 8.31906 6.07605 8.25626C5.94035 8.19345 5.79262 8.16158 5.64309 8.16158V9.13832C5.65104 9.13828 5.6589 9.13935 5.6661 9.1427C5.67331 9.14604 5.67969 9.15094 5.68478 9.15703C5.68988 9.16312 5.69357 9.17027 5.6956 9.17795C5.69762 9.18563 5.69793 9.19367 5.69649 9.20148L6.66021 9.35906ZM10.3842 8.13813C10.3923 8.23243 10.3785 8.3273 10.3427 8.41492C10.3069 8.50254 10.2508 8.58041 10.1791 8.64213L10.8172 9.3825C11.0061 9.21969 11.1535 9.01437 11.2475 8.78342C11.3414 8.55248 11.3792 8.30253 11.3577 8.05413L10.3842 8.13813Z" fill="#9E9FB4"/>
</svg>
