<svg width="23" height="22" viewBox="0 0 23 22" fill="none" xmlns="http://www.w3.org/2000/svg">
<path d="M1.59766 11.0004H15.5977M15.5977 11.0004L12.0977 8.00037M15.5977 11.0004L12.0977 14.0004" stroke="#9E9FB4" stroke-width="1.5" stroke-linecap="round" stroke-linejoin="round"/>
<path d="M8.59863 6.00134C8.61063 3.82634 8.70763 2.64834 9.47563 1.88034C10.3546 1.00134 11.7686 1.00134 14.5966 1.00134H15.5966C18.4256 1.00134 19.8396 1.00134 20.7186 1.88034C21.5966 2.75834 21.5966 4.17334 21.5966 7.00134V15.0013C21.5966 17.8293 21.5966 19.2443 20.7186 20.1223C19.9496 20.8913 18.7716 20.9873 16.5966 20.9993M8.59863 16.0013C8.61063 18.1763 8.70763 19.3543 9.47563 20.1223C10.1166 20.7643 11.0436 20.9373 12.5966 20.9843" stroke="#9E9FB4" stroke-width="1.5" stroke-linecap="round"/>
</svg>
