<svg width="137" height="30" viewBox="0 0 137 30" fill="none" xmlns="http://www.w3.org/2000/svg">
<path d="M86.3999 13.2103C86.8177 13.2836 87.1852 13.335 87.5021 13.3643C87.8335 13.3936 88.1073 13.4156 88.3234 13.4303C88.5827 13.445 88.8061 13.4523 88.9934 13.4523C89.1807 13.4523 89.4472 13.4377 89.793 13.4083C90.0812 13.379 90.4558 13.3423 90.9169 13.2983C91.3924 13.2543 91.9759 13.1809 92.6675 13.0782C92.4658 13.1369 92.2785 13.3056 92.1056 13.5844C91.9471 13.8484 91.803 14.1345 91.6733 14.4425C91.5148 14.8093 91.3779 15.2127 91.2627 15.6528C91.1618 16.0489 91.0321 16.5917 90.8737 17.2812C90.7296 17.9707 90.5855 18.7188 90.4414 19.5257C90.3117 20.3325 90.2109 21.154 90.1388 21.9902C90.0668 22.8117 90.0524 23.5672 90.0956 24.2567C90.1532 24.9462 90.2901 25.5183 90.5063 25.9731C90.7224 26.4132 91.0538 26.6479 91.5004 26.6773C92.1776 26.7359 92.7395 26.7433 93.1862 26.6993C93.6472 26.6406 94.0219 26.5599 94.31 26.4572C94.5982 26.3545 94.8215 26.2372 94.98 26.1051C95.1385 25.9584 95.261 25.8191 95.3474 25.687C95.5779 25.3496 95.8157 24.9169 96.0606 24.3888C96.3056 23.8606 96.5217 23.3545 96.709 22.8704C96.9107 22.3863 97.0764 21.9755 97.2061 21.6381C97.3358 21.3007 97.4006 21.1394 97.4006 21.154C97.4006 21.1834 97.3934 21.3521 97.379 21.6601C97.379 21.9535 97.3718 22.313 97.3574 22.7384C97.3574 23.1491 97.3502 23.5819 97.3358 24.0367C97.3358 24.4914 97.3286 24.8802 97.3141 25.2029C97.2997 25.467 97.2853 25.7604 97.2709 26.0831C97.2565 26.3619 97.2421 26.6919 97.2277 27.0733C97.2277 27.4548 97.2133 27.8729 97.1845 28.3276C96.5793 28.2836 96.003 28.2543 95.4555 28.2396C94.908 28.2249 94.4253 28.2176 94.0074 28.2176C93.5176 28.2176 93.0637 28.2249 92.6459 28.2396C92.1992 28.2543 91.6805 28.2763 91.0898 28.3056C90.5855 28.335 89.9587 28.3716 89.2095 28.4156C88.4603 28.445 87.5958 28.489 86.616 28.5477C86.7313 28.3423 86.8249 28.1516 86.897 27.9755C86.9834 27.7995 87.0483 27.6528 87.0915 27.5354C87.1491 27.3888 87.1851 27.2641 87.1996 27.1614C87.286 26.6919 87.358 26.0978 87.4157 25.379C87.4733 24.6455 87.5165 23.868 87.5454 23.0465C87.5886 22.2249 87.6102 21.3888 87.6102 20.5379C87.6246 19.6724 87.6246 18.8729 87.6102 18.1394C87.5958 17.4059 87.567 16.7677 87.5237 16.2249C87.4949 15.6822 87.4517 15.3081 87.3941 15.1027C87.322 14.868 87.2356 14.6333 87.1347 14.3985C87.0483 14.1932 86.9402 13.9878 86.8105 13.7824C86.6953 13.5623 86.5584 13.3716 86.3999 13.2103Z" fill="white"/>
<path d="M100.232 20.2518C100.304 20.1638 100.347 20.0024 100.361 19.7677C100.39 19.5183 100.448 19.2396 100.534 18.9315C100.635 18.6235 100.801 18.3007 101.031 17.9633C101.262 17.6259 101.637 17.3105 102.155 17.0171C102.66 16.7237 103.149 16.5477 103.625 16.489C104.1 16.4303 104.554 16.4523 104.987 16.555C105.419 16.6577 105.822 16.8191 106.197 17.0391C106.586 17.2592 106.939 17.5012 107.256 17.7653C107.472 17.9413 107.645 18.198 107.775 18.5355C107.904 18.8582 108.005 19.2249 108.077 19.6357C108.149 20.0465 108.2 20.4792 108.228 20.934C108.272 21.3741 108.3 21.8068 108.315 22.2323C108.329 22.643 108.336 23.0244 108.336 23.3765C108.351 23.7139 108.38 23.9927 108.423 24.2127C108.481 24.5355 108.581 24.8142 108.725 25.0489C108.87 25.2689 109.028 25.4597 109.201 25.621C109.374 25.7677 109.547 25.8851 109.72 25.9731C109.893 26.0611 110.044 26.1271 110.173 26.1711C110.26 26.2152 110.339 26.2445 110.411 26.2592C110.555 26.3178 110.656 26.3178 110.714 26.2592C110.627 26.4645 110.548 26.6406 110.476 26.7873C110.404 26.934 110.346 27.0587 110.303 27.1614C110.246 27.2787 110.195 27.3741 110.152 27.4474C110.109 27.5355 110.058 27.6161 110.001 27.6895C109.957 27.7628 109.9 27.8435 109.828 27.9315C109.756 28.0196 109.684 28.1149 109.612 28.2176C109.424 28.1443 109.244 28.0562 109.071 27.9535C108.913 27.8509 108.769 27.7555 108.639 27.6675C108.481 27.5648 108.336 27.4621 108.207 27.3594C108.077 27.2567 107.955 27.1394 107.839 27.0073C107.738 26.89 107.63 26.7653 107.515 26.6333C107.414 26.5012 107.328 26.3545 107.256 26.1932C107.169 26.3839 106.96 26.6553 106.629 27.0073C106.312 27.3594 105.894 27.6821 105.376 27.9755C104.857 28.2543 104.252 28.4523 103.56 28.5697C102.883 28.687 102.134 28.6064 101.312 28.3276C100.952 28.2103 100.614 28.0416 100.297 27.8215C99.9797 27.5868 99.7059 27.3081 99.4754 26.9853C99.2593 26.6626 99.1008 26.2958 98.9999 25.8851C98.9135 25.4597 98.9207 24.9902 99.0215 24.4768C99.1224 23.9633 99.3025 23.5306 99.5618 23.1785C99.8212 22.8264 100.131 22.5403 100.491 22.3203C100.851 22.1002 101.255 21.9315 101.701 21.8142C102.148 21.6968 102.609 21.6161 103.085 21.5721C103.459 21.5575 103.834 21.5795 104.208 21.6381C104.525 21.6968 104.857 21.8068 105.203 21.9682C105.548 22.1149 105.844 22.3423 106.089 22.6504C106.074 21.8729 106.046 21.2567 106.002 20.802C105.973 20.3325 105.945 19.9731 105.916 19.7237C105.858 19.4303 105.808 19.2249 105.765 19.1076C105.693 19.0049 105.613 18.8875 105.527 18.7555C105.455 18.6235 105.361 18.5061 105.246 18.4034C105.131 18.2861 104.987 18.1907 104.814 18.1174C104.641 18.044 104.439 18.0147 104.208 18.0293C103.964 18.044 103.769 18.11 103.625 18.2274C103.481 18.3447 103.366 18.4841 103.279 18.6455C103.207 18.7922 103.164 18.9535 103.149 19.1296C103.135 19.3056 103.142 19.4597 103.171 19.5917C103.2 19.6797 103.243 19.7751 103.301 19.8777C103.358 19.9658 103.438 20.0611 103.538 20.1638C103.639 20.2665 103.776 20.3545 103.949 20.4279C103.618 20.4719 103.322 20.5086 103.063 20.5379C102.804 20.5526 102.58 20.5746 102.393 20.6039C102.177 20.6333 101.99 20.6553 101.831 20.6699C101.673 20.6846 101.485 20.7139 101.269 20.7579C101.082 20.7873 100.851 20.824 100.578 20.868C100.304 20.912 99.9869 20.9707 99.6267 21.044C99.7131 20.9413 99.7924 20.846 99.8644 20.7579C99.9364 20.6553 100.001 20.5672 100.059 20.4939C100.117 20.4059 100.174 20.3252 100.232 20.2518ZM103.474 22.8704C103.214 22.8851 102.955 22.9511 102.696 23.0685C102.436 23.1711 102.206 23.3252 102.004 23.5306C101.802 23.7213 101.629 23.9487 101.485 24.2127C101.356 24.4621 101.291 24.7408 101.291 25.0489C101.291 25.357 101.363 25.6284 101.507 25.8631C101.665 26.0831 101.867 26.2665 102.112 26.4132C102.371 26.5599 102.645 26.6479 102.933 26.6773C103.236 26.7066 103.531 26.6773 103.819 26.5892C104.093 26.4866 104.353 26.3252 104.598 26.1051C104.842 25.8704 105.051 25.621 105.224 25.357C105.397 25.0782 105.52 24.8068 105.592 24.5428C105.664 24.2641 105.671 24.0367 105.613 23.8606C105.498 23.4792 105.239 23.2152 104.835 23.0685C104.432 22.9071 103.978 22.8411 103.474 22.8704Z" fill="white"/>
<path d="M111.168 26.7433C111.269 26.2592 111.341 25.8337 111.384 25.467C111.441 25.0856 111.485 24.7702 111.513 24.5208C111.542 24.2274 111.557 23.978 111.557 23.7726C111.542 23.5232 111.528 23.2298 111.513 22.8924C111.513 22.5403 111.499 22.1956 111.47 21.8582C111.456 21.5061 111.434 21.198 111.405 20.934C111.377 20.6553 111.341 20.4572 111.297 20.3399C111.24 20.2225 111.16 20.0978 111.06 19.9658C110.858 19.7164 110.563 19.4743 110.173 19.2396C110.505 19.1663 110.786 19.1076 111.016 19.0636C111.261 19.0049 111.463 18.9535 111.622 18.9095C111.794 18.8509 111.946 18.7995 112.075 18.7555C112.191 18.7115 112.328 18.6675 112.486 18.6235C112.616 18.5941 112.774 18.5575 112.961 18.5134C113.149 18.4694 113.365 18.4181 113.61 18.3594L113.545 20.3619C114.006 19.8044 114.474 19.3863 114.95 19.1076C115.425 18.8288 115.872 18.6308 116.29 18.5134C116.765 18.3667 117.234 18.2934 117.695 18.2934C118.271 18.3227 118.804 18.4181 119.294 18.5795C119.798 18.7408 120.23 18.9315 120.591 19.1516C120.965 19.357 121.268 19.577 121.498 19.8117C121.729 20.0465 121.866 20.2518 121.909 20.4279C122.082 21 122.125 21.5281 122.039 22.0122C121.952 22.4817 121.837 22.9438 121.693 23.3985C121.563 23.8386 121.448 24.2787 121.347 24.7188C121.261 25.1589 121.297 25.6357 121.455 26.1491C121.513 26.2812 121.57 26.4132 121.628 26.5452C121.686 26.6626 121.758 26.7799 121.844 26.8973C121.931 27.0147 122.031 27.11 122.147 27.1834C121.988 27.1687 121.83 27.1614 121.671 27.1614C121.513 27.1467 121.369 27.132 121.239 27.1174C121.081 27.1027 120.936 27.088 120.807 27.0733C120.663 27.0587 120.468 27.0513 120.223 27.0513C119.805 27.0513 119.157 27.0733 118.278 27.1174C118.408 26.8093 118.509 26.5526 118.581 26.3472C118.667 26.1271 118.739 25.9511 118.797 25.8191C118.854 25.6577 118.898 25.533 118.926 25.445C119.099 25.0196 119.2 24.5355 119.229 23.9927C119.272 23.4499 119.236 22.8998 119.121 22.3423C119.078 22.1516 119.006 21.9242 118.905 21.6601C118.804 21.3961 118.667 21.1394 118.494 20.89C118.336 20.6406 118.141 20.4279 117.911 20.2518C117.695 20.0758 117.442 19.9731 117.154 19.9438C116.866 19.9144 116.542 19.9878 116.182 20.1638C115.836 20.3399 115.461 20.6626 115.058 21.132C114.755 21.5281 114.518 22.0122 114.345 22.5844C114.186 23.0685 114.078 23.6773 114.02 24.4108C113.963 25.1296 114.049 25.9731 114.28 26.9413C114.078 26.912 113.891 26.8973 113.718 26.8973C113.545 26.8826 113.401 26.868 113.286 26.8533C113.142 26.8386 113.012 26.824 112.897 26.8093C112.767 26.8093 112.623 26.802 112.464 26.7873C112.32 26.7873 112.14 26.7873 111.924 26.7873C111.708 26.7726 111.456 26.7579 111.168 26.7433Z" fill="white"/>
<path d="M133.861 12.3081C134.134 12.3227 134.43 12.3301 134.747 12.3301C135.02 12.3301 135.33 12.3374 135.676 12.3521C136.036 12.3521 136.411 12.3374 136.8 12.3081C136.454 12.4694 136.152 12.7042 135.892 13.0122C135.633 13.3203 135.424 13.6284 135.265 13.9364C135.064 14.3032 134.898 14.6846 134.768 15.0807C134.696 15.3154 134.639 15.7335 134.595 16.335C134.552 16.9218 134.516 17.6112 134.487 18.4034C134.473 19.1956 134.466 20.0318 134.466 20.912C134.466 21.7922 134.473 22.6357 134.487 23.4425C134.502 24.2347 134.523 24.9389 134.552 25.555C134.581 26.1711 134.617 26.6039 134.66 26.8533C134.718 27.1467 134.79 27.4254 134.876 27.6895C134.948 27.9242 135.042 28.1663 135.157 28.4156C135.273 28.6504 135.417 28.8411 135.59 28.9878L133.385 30C133.27 29.8386 133.176 29.6699 133.104 29.4939C133.032 29.3325 132.975 29.1858 132.931 29.0538C132.874 28.8924 132.838 28.7457 132.823 28.6137C132.794 28.4377 132.766 28.2469 132.737 28.0416C132.708 27.8215 132.672 27.6161 132.629 27.4254C132.6 27.22 132.578 27.0513 132.564 26.9193C132.549 26.7873 132.549 26.7066 132.564 26.6773C132.578 26.6479 132.492 26.7799 132.305 27.0733C132.117 27.3521 131.836 27.6821 131.462 28.0636C131.101 28.4303 130.655 28.7897 130.122 29.1418C129.589 29.4792 128.991 29.6919 128.328 29.7799C127.651 29.868 127.024 29.7359 126.448 29.3839C125.886 29.0318 125.403 28.5403 125 27.9095C124.596 27.2641 124.286 26.5232 124.07 25.687C123.869 24.8362 123.789 23.9707 123.832 23.0905C123.861 22.5037 123.991 21.9829 124.222 21.5281C124.452 21.0587 124.74 20.6553 125.086 20.3178C125.446 19.9658 125.835 19.6724 126.253 19.4377C126.685 19.1883 127.103 18.9829 127.507 18.8215C127.924 18.6601 128.313 18.5428 128.674 18.4694C129.034 18.3961 129.322 18.3447 129.538 18.3154C129.797 18.3007 130.093 18.3447 130.424 18.4474C130.712 18.5355 131.044 18.6822 131.418 18.8875C131.807 19.0929 132.24 19.401 132.715 19.8117C132.629 18.3447 132.549 17.1711 132.477 16.291C132.405 15.3961 132.333 14.7139 132.261 14.2445C132.189 13.687 132.124 13.3056 132.067 13.1002C131.995 12.9535 131.901 12.8068 131.786 12.6601C131.685 12.5428 131.555 12.4254 131.397 12.3081C131.253 12.176 131.08 12.0733 130.878 12C131.253 12.0733 131.613 12.1247 131.959 12.154C132.305 12.1834 132.622 12.2127 132.91 12.2421C133.241 12.2714 133.558 12.2934 133.861 12.3081ZM128.436 20.5159C128.162 20.6186 127.939 20.7946 127.766 21.044C127.607 21.2934 127.478 21.5941 127.377 21.9462C127.276 22.2836 127.204 22.6504 127.161 23.0465C127.132 23.4279 127.11 23.802 127.096 24.1687C127.096 24.5208 127.096 24.8435 127.096 25.1369C127.096 25.4303 127.096 25.6504 127.096 25.7971C127.096 25.8851 127.11 26.0465 127.139 26.2812C127.182 26.5012 127.269 26.7359 127.399 26.9853C127.528 27.22 127.708 27.4328 127.939 27.6235C128.184 27.8142 128.508 27.9095 128.911 27.9095C129.243 27.8802 129.596 27.7628 129.97 27.5575C130.302 27.3814 130.676 27.1027 131.094 26.7213C131.526 26.3252 131.988 25.7604 132.477 25.0269C132.449 24.5575 132.427 24.1687 132.413 23.8606C132.413 23.5526 132.405 23.3032 132.391 23.1125C132.377 22.8924 132.369 22.7164 132.369 22.5844V22.2543C132.369 22.1663 132.369 22.0709 132.369 21.9682C132.369 21.8655 132.377 21.7702 132.391 21.6821C131.988 21.3888 131.627 21.1394 131.31 20.934C131.008 20.7139 130.705 20.5526 130.403 20.4499C130.114 20.3325 129.812 20.2812 129.495 20.2958C129.192 20.2958 128.839 20.3692 128.436 20.5159Z" fill="white"/>
<path d="M0 0.549451C0.78702 0.744811 1.53715 0.891331 2.25038 0.989011C2.96362 1.08669 3.59078 1.15995 4.13185 1.20879C4.77131 1.28205 5.36157 1.30647 5.90265 1.28205C6.59129 1.28205 7.45209 1.221 8.48506 1.0989C9.54261 0.976801 10.6248 0.866911 11.7315 0.769231C12.8383 0.647131 13.8958 0.573871 14.9042 0.549451C15.9371 0.500611 16.7734 0.561661 17.4128 0.732601C18.0523 0.879121 18.704 1.11111 19.3681 1.42857C20.0567 1.72161 20.6839 2.10012 21.2495 2.5641C21.8152 3.00366 22.2825 3.52869 22.6514 4.13919C23.0203 4.72528 23.2294 5.39683 23.2786 6.15385C23.254 7.10623 23.0326 7.99756 22.6145 8.82784C22.2702 9.53602 21.6922 10.2686 20.8806 11.0256C20.069 11.7582 18.9008 12.3199 17.3759 12.7106C18.1383 12.8083 18.7901 12.9792 19.3312 13.2234C19.8968 13.4432 20.3764 13.7118 20.7699 14.0293C21.188 14.3223 21.5201 14.652 21.766 15.0183C22.0366 15.3846 22.2456 15.7509 22.3932 16.1172C22.7621 16.9719 22.9342 17.9243 22.9097 18.9744C22.7621 20.3419 22.4792 21.4286 22.0611 22.2344C21.6676 23.0403 21.2126 23.663 20.6962 24.1026C20.1797 24.5421 19.6509 24.8474 19.1098 25.0183C18.5687 25.1893 18.0769 25.3236 17.6342 25.4212C17.1915 25.5189 16.6504 25.5678 16.0109 25.5678C15.3715 25.5678 14.6828 25.5556 13.945 25.5311C13.2318 25.4823 12.4939 25.4457 11.7315 25.4212C10.9691 25.3724 10.2436 25.3724 9.55491 25.4212C8.98924 25.4701 8.3006 25.5189 7.48898 25.5678C6.80034 25.6166 5.93954 25.6777 4.90658 25.7509C3.87361 25.7998 2.66849 25.8608 1.2912 25.9341C1.56174 25.7387 1.78309 25.5189 1.95525 25.2747C2.15201 25.0061 2.31187 24.7741 2.43484 24.5788C2.55781 24.3346 2.66849 24.1026 2.76687 23.8828C2.84065 23.6874 2.90214 23.1502 2.95132 22.2711C3.00051 21.3919 3.0374 20.3419 3.062 19.1209C3.08659 17.8755 3.09889 16.5446 3.09889 15.1282C3.12348 13.6874 3.11119 12.3077 3.062 10.989C3.0374 9.64591 2.98822 8.46154 2.91443 7.4359C2.86524 6.38584 2.79146 5.62882 2.69308 5.16483C2.54552 4.65201 2.34876 4.12698 2.10282 3.58974C1.90606 3.12576 1.62323 2.62515 1.25431 2.08791C0.909992 1.55067 0.491887 1.03785 0 0.549451ZM7.78412 4.28571C7.78412 4.38339 7.79641 4.71306 7.82101 5.27473C7.8456 5.76313 7.8702 6.52015 7.89479 7.54579C7.94398 8.54701 8.00547 9.97558 8.07925 11.8315C8.69411 12.1001 9.29667 12.2466 9.88693 12.2711C10.4772 12.2711 11.006 12.2466 11.4733 12.1978C12.0143 12.1245 12.5308 12.0024 13.0227 11.8315C13.6868 11.5629 14.2032 11.1233 14.5722 10.5128C14.9657 9.90232 15.2239 9.2674 15.3469 8.60806C15.4944 7.9243 15.5313 7.28938 15.4576 6.7033C15.3838 6.0928 15.2239 5.65324 14.978 5.38462C14.5107 4.96947 13.9327 4.62759 13.2441 4.35897C12.6538 4.13919 11.9037 3.99267 10.9937 3.91941C10.1083 3.82173 9.03843 3.94383 7.78412 4.28571ZM7.59966 21.6483C8.50965 22.1123 9.30897 22.4176 9.99761 22.5641C10.6863 22.7106 11.2642 22.7839 11.7315 22.7839C12.2726 22.7839 12.7399 22.7106 13.1334 22.5641C13.6007 22.3443 14.0557 22.0513 14.4984 21.685C14.9657 21.2943 15.31 20.8425 15.5313 20.3297C15.7773 19.7924 15.8757 19.2063 15.8265 18.5714C15.7773 17.9121 15.4944 17.1917 14.978 16.4103C14.5107 15.8486 13.945 15.409 13.281 15.0916C12.6907 14.823 11.9406 14.652 11.0306 14.5788C10.1452 14.5055 9.05073 14.7131 7.74723 15.2015L7.59966 21.6483Z" fill="#A259FF"/>
<path d="M34.8625 10.3297C35.502 10.3297 36.166 10.4518 36.8547 10.696C37.5433 10.9158 38.2073 11.2088 38.8468 11.5751C39.4863 11.917 40.0642 12.2955 40.5807 12.7106C41.1218 13.1013 41.5645 13.4799 41.9088 13.8462C42.5237 14.5055 42.9418 15.3968 43.1631 16.5201C43.4091 17.619 43.4582 18.7546 43.3107 19.9267C43.1631 21.0745 42.8188 22.1612 42.2777 23.1868C41.7366 24.2125 40.9865 24.9695 40.0273 25.4579C39.3387 25.7998 38.6623 26.0684 37.9983 26.2637C37.3342 26.4591 36.6948 26.6056 36.0799 26.7033C35.4651 26.801 34.8871 26.8498 34.346 26.8498C33.805 26.8498 33.3377 26.8376 32.9442 26.8132C32.2063 26.7643 31.4316 26.5079 30.62 26.044C29.833 25.58 29.0828 25.0061 28.3696 24.3223C27.681 23.6386 27.0907 22.8938 26.5988 22.0879C26.1069 21.2576 25.8118 20.4762 25.7134 19.7436C25.5658 18.7424 25.5412 17.6923 25.6396 16.5934C25.738 15.4945 26.0946 14.4811 26.7095 13.5531C27.3489 12.6252 28.3081 11.8559 29.587 11.2454C30.8905 10.6349 32.649 10.3297 34.8625 10.3297ZM33.6451 24.5421C33.9156 24.591 34.2845 24.5299 34.7518 24.359C35.2191 24.1636 35.6741 23.8584 36.1168 23.4432C36.5841 23.0281 36.9899 22.5031 37.3342 21.8681C37.7032 21.2088 37.9245 20.4151 37.9983 19.4872C38.0721 18.5836 38.0721 17.7534 37.9983 16.9963C37.9491 16.2393 37.8384 15.58 37.6663 15.0183C37.4941 14.4322 37.2974 13.956 37.076 13.5897C36.8547 13.2234 36.621 12.967 36.3751 12.8205C35.957 12.6007 35.4528 12.4298 34.8625 12.3077C34.2722 12.1612 33.7681 12.1856 33.35 12.381C33.1532 12.4786 32.9073 12.6862 32.6121 13.0037C32.317 13.3211 32.0219 13.7241 31.7267 14.2125C31.4316 14.6764 31.1611 15.2137 30.9151 15.8242C30.6938 16.4347 30.5339 17.0696 30.4355 17.7289C30.3371 18.3883 30.3126 19.0965 30.3617 19.8535C30.4355 20.6105 30.5954 21.3309 30.8413 22.0147C31.0873 22.674 31.4316 23.2479 31.8743 23.7363C32.3416 24.2002 32.9319 24.4689 33.6451 24.5421Z" fill="#A259FF"/>
<path d="M54.9684 10.3297C55.6079 10.3297 56.2719 10.4518 56.9605 10.696C57.6492 10.9158 58.3132 11.2088 58.9527 11.5751C59.5921 11.917 60.1701 12.2955 60.6866 12.7106C61.2277 13.1013 61.6704 13.4799 62.0147 13.8462C62.6296 14.5055 63.0477 15.3968 63.269 16.5201C63.5149 17.619 63.5641 18.7546 63.4166 19.9267C63.269 21.0745 62.9247 22.1612 62.3836 23.1868C61.8425 24.2125 61.0924 24.9695 60.1332 25.4579C59.4446 25.7998 58.7682 26.0684 58.1042 26.2637C57.4401 26.4591 56.8007 26.6056 56.1858 26.7033C55.571 26.801 54.993 26.8498 54.4519 26.8498C53.9108 26.8498 53.4436 26.8376 53.05 26.8132C52.3122 26.7643 51.5375 26.5079 50.7259 26.044C49.9389 25.58 49.1887 25.0061 48.4755 24.3223C47.7868 23.6386 47.1966 22.8938 46.7047 22.0879C46.2128 21.2576 45.9177 20.4762 45.8193 19.7436C45.6717 18.7424 45.6471 17.6923 45.7455 16.5934C45.8439 15.4945 46.2005 14.4811 46.8154 13.5531C47.4548 12.6252 48.414 11.8559 49.6929 11.2454C50.9964 10.6349 52.7549 10.3297 54.9684 10.3297ZM53.751 24.5421C54.0215 24.591 54.3904 24.5299 54.8577 24.359C55.325 24.1636 55.78 23.8584 56.2227 23.4432C56.69 23.0281 57.0958 22.5031 57.4401 21.8681C57.8091 21.2088 58.0304 20.4151 58.1042 19.4872C58.178 18.5836 58.178 17.7534 58.1042 16.9963C58.055 16.2393 57.9443 15.58 57.7722 15.0183C57.6 14.4322 57.4032 13.956 57.1819 13.5897C56.9606 13.2234 56.7269 12.967 56.481 12.8205C56.0629 12.6007 55.5587 12.4298 54.9684 12.3077C54.3781 12.1612 53.874 12.1856 53.4559 12.381C53.2591 12.4786 53.0132 12.6862 52.718 13.0037C52.4229 13.3211 52.1278 13.7241 51.8326 14.2125C51.5375 14.6764 51.267 15.2137 51.021 15.8242C50.7997 16.4347 50.6398 17.0696 50.5414 17.7289C50.443 18.3883 50.4184 19.0965 50.4676 19.8535C50.5414 20.6105 50.7013 21.3309 50.9472 22.0147C51.1932 22.674 51.5375 23.2479 51.9802 23.7363C52.4475 24.2002 53.0378 24.4689 53.751 24.5421Z" fill="#A259FF"/>
<path d="M64.8184 0.32967C65.089 0.45177 65.4087 0.537241 65.7776 0.586081C66.1711 0.634921 66.5401 0.659341 66.8844 0.659341C67.3025 0.659341 67.7329 0.647131 68.1756 0.622711C68.6183 0.598291 69.1594 0.549451 69.7988 0.47619C70.3153 0.42735 70.9547 0.3663 71.7172 0.29304C72.4796 0.21978 73.3281 0.1221 74.2627 0C73.9184 0.17094 73.6232 0.35409 73.3773 0.549451C73.1313 0.744811 72.9223 0.940171 72.7501 1.13553C72.5534 1.35531 72.3935 1.57509 72.2705 1.79487C72.0984 2.08791 71.8647 2.60073 71.5696 3.33333C71.2991 4.04151 71.0162 4.83516 70.7211 5.71429C70.4506 6.59341 70.2046 7.48474 69.9833 8.38828C69.7865 9.29182 69.6758 10.061 69.6512 10.696C69.6266 11.2332 69.6021 11.8437 69.5775 12.5275C69.5529 13.1136 69.5283 13.8339 69.5037 14.6886C69.4791 15.5433 69.4545 16.5201 69.4299 17.619C71.2007 16.3492 72.5657 15.3358 73.5249 14.5788C74.484 13.7973 75.185 13.199 75.6277 12.7839C76.1441 12.3199 76.4516 11.9902 76.55 11.7949C76.5254 11.6484 76.4639 11.4896 76.3655 11.3187C76.2425 11.1722 76.0704 11.0012 75.849 10.8059C75.6277 10.6105 75.2956 10.3907 74.853 10.1465C75.4924 10.2198 76.0458 10.2686 76.5131 10.293C77.005 10.3175 77.4231 10.3419 77.7674 10.3663C78.1609 10.3907 78.5052 10.3907 78.8003 10.3663C79.1201 10.3663 79.5136 10.3541 79.9809 10.3297C80.7925 10.3052 82.0468 10.2686 83.7438 10.2198C82.096 11.0745 80.7925 11.8071 79.8333 12.4176C79.2922 12.7595 78.8126 13.0769 78.3945 13.37C77.9764 13.6874 77.546 14.0171 77.1033 14.359C76.7098 14.652 76.2548 14.9939 75.7383 15.3846C75.2465 15.7753 74.7546 16.1905 74.2627 16.63C75.1235 18.022 75.8736 19.1697 76.5131 20.0733C77.1771 20.9768 77.7305 21.7094 78.1732 22.2711C78.6897 22.9304 79.1447 23.4554 79.5382 23.8462C79.9317 24.2125 80.4482 24.6276 81.0876 25.0916C81.6287 25.5067 82.3296 25.9951 83.1904 26.5568C84.0758 27.094 85.1457 27.7167 86.4 28.4249C85.7606 28.3028 85.1457 28.2173 84.5554 28.1685C83.9652 28.1441 83.461 28.1441 83.0429 28.1685C82.5264 28.1929 82.0591 28.2418 81.641 28.315C81.1983 28.4127 80.7064 28.5348 80.1653 28.6813C79.698 28.8034 79.1447 28.9621 78.5052 29.1575C77.8904 29.3773 77.214 29.6581 76.4762 30C76.9435 29.6581 77.2878 29.3285 77.5091 29.011C77.7551 28.718 77.9272 28.4737 78.0256 28.2784C78.124 28.0342 78.1609 27.8266 78.1363 27.6557C78.0133 27.4115 77.7305 26.9109 77.2878 26.1538C76.8697 25.5189 76.2548 24.591 75.4432 23.37C74.6316 22.149 73.4757 20.4884 71.9754 18.3883C71.9016 18.4127 71.7787 18.486 71.6065 18.6081C71.4589 18.7302 71.2376 18.9011 70.9424 19.1209C70.6473 19.3162 70.2538 19.6093 69.7619 20L70.758 26.4103C70.5366 26.5079 70.2907 26.5934 70.0202 26.6667C69.7742 26.7399 69.5406 26.801 69.3192 26.8498C69.0487 26.9231 68.7781 26.9719 68.5076 26.9963C68.2371 27.0208 67.9173 27.0696 67.5484 27.1429C67.2287 27.1917 66.8475 27.2527 66.4048 27.326C65.9621 27.4237 65.4579 27.5336 64.8922 27.6557C65.212 27.4359 65.4702 27.1795 65.667 26.8864C65.8637 26.6178 66.0236 26.3614 66.1465 26.1172C66.2695 25.8486 66.3802 25.5678 66.4786 25.2747C66.5278 25.0305 66.577 24.3956 66.6261 23.37C66.6999 22.3443 66.7614 21.1233 66.8106 19.707C66.8598 18.2662 66.8967 16.7277 66.9213 15.0916C66.9705 13.4554 66.995 11.917 66.995 10.4762C66.995 9.01099 66.9827 7.74115 66.9582 6.66667C66.9336 5.56777 66.8844 4.85958 66.8106 4.54212C66.6876 4.1514 66.5401 3.73626 66.3679 3.2967C66.2203 2.90598 66.0113 2.46642 65.7407 1.97802C65.4948 1.4652 65.1874 0.915751 64.8184 0.32967Z" fill="#A259FF"/>
</svg>
