<svg width="29" height="20" viewBox="0 0 29 20" fill="none" xmlns="http://www.w3.org/2000/svg">
<path fill-rule="evenodd" clip-rule="evenodd" d="M27.4404 0.0337731C27.7852 0.0337731 28.1159 0.170749 28.3598 0.414569C28.6036 0.658388 28.7405 0.989078 28.7405 1.33389C28.7405 5.22384 27.0903 7.78248 24.9494 9.32355C22.8761 10.8161 20.425 11.3015 18.773 11.3015H4.57569L11.0243 17.75C11.152 17.8691 11.2545 18.0126 11.3255 18.1721C11.3966 18.3316 11.4348 18.5037 11.4379 18.6783C11.441 18.8529 11.4088 19.0263 11.3435 19.1881C11.2781 19.35 11.1807 19.4971 11.0573 19.6205C10.9338 19.744 10.7868 19.8413 10.6249 19.9067C10.463 19.9721 10.2896 20.0042 10.115 20.0011C9.94045 19.9981 9.76829 19.9599 9.60881 19.8888C9.44933 19.8177 9.3058 19.7153 9.18678 19.5875L0.519323 10.9201C0.275854 10.6763 0.139099 10.3459 0.139099 10.0013C0.139099 9.65681 0.275854 9.32637 0.519323 9.08259L9.18678 0.415141C9.3058 0.287405 9.44933 0.184952 9.60881 0.113893C9.76829 0.0428339 9.94045 0.00462515 10.115 0.00154511C10.2896 -0.00153493 10.463 0.0305769 10.6249 0.095966C10.7868 0.161355 10.9338 0.258681 11.0573 0.382138C11.1807 0.505595 11.2781 0.652654 11.3435 0.814541C11.4088 0.976429 11.441 1.14983 11.4379 1.3244C11.4348 1.49896 11.3966 1.67112 11.3255 1.8306C11.2545 1.99008 11.152 2.13362 11.0243 2.25264L4.57569 8.70123H18.773C20.009 8.70123 21.8933 8.31986 23.4309 7.21216C24.9009 6.15473 26.1403 4.3779 26.1403 1.33389C26.1403 0.989078 26.2773 0.658388 26.5211 0.414569C26.7649 0.170749 27.0956 0.0337731 27.4404 0.0337731Z" fill="#9E9FB4"/>
</svg>
