<svg width="23" height="22" viewBox="0 0 23 22" fill="none" xmlns="http://www.w3.org/2000/svg">
<path d="M11.5967 14.0013C12.7012 14.0013 13.5967 13.1059 13.5967 12.0013C13.5967 10.8968 12.7012 10.0013 11.5967 10.0013C10.4921 10.0013 9.59668 10.8968 9.59668 12.0013C9.59668 13.1059 10.4921 14.0013 11.5967 14.0013Z" stroke="#9E9FB4" stroke-width="1.5"/>
<path d="M10.8467 16.5013C10.8467 16.7003 10.9257 16.891 11.0663 17.0317C11.207 17.1723 11.3978 17.2513 11.5967 17.2513C11.7956 17.2513 11.9864 17.1723 12.127 17.0317C12.2677 16.891 12.3467 16.7003 12.3467 16.5013H10.8467ZM10.8467 14.0013V16.5013H12.3467V14.0013H10.8467Z" fill="#9E9FB4"/>
<path d="M21.5967 10.7993C21.5967 8.16734 21.5967 6.85034 20.8267 5.99534C20.7561 5.91642 20.6813 5.84131 20.6027 5.77034C19.7477 5.00134 18.4307 5.00134 15.7987 5.00134H15.4247C14.2717 5.00134 13.6947 5.00134 13.1567 4.84834C12.8614 4.76395 12.5769 4.64584 12.3087 4.49634C11.8207 4.22534 11.4127 3.81634 10.5967 3.00134L10.0467 2.45134C9.77268 2.17734 9.63668 2.04134 9.49268 1.92134C8.87335 1.40798 8.11362 1.09329 7.31268 1.01834C7.12668 1.00134 6.93268 1.00134 6.54668 1.00134C5.66368 1.00134 5.22268 1.00134 4.85468 1.07134C4.06452 1.22057 3.33768 1.60448 2.76899 2.17299C2.20029 2.74151 1.81615 3.46823 1.66668 4.25834C1.59668 4.62734 1.59668 5.06934 1.59668 5.95134M21.5877 15.0013C21.5517 17.4813 21.3677 18.8863 20.4247 19.8293C19.2537 21.0013 17.3677 21.0013 13.5967 21.0013H9.59668C5.82568 21.0013 3.93968 21.0013 2.76868 19.8293C1.59668 18.6583 1.59668 16.7723 1.59668 13.0013V10.0013" stroke="#9E9FB4" stroke-width="1.5" stroke-linecap="round"/>
</svg>
