<svg width="20" height="20" viewBox="0 0 20 20" fill="none" xmlns="http://www.w3.org/2000/svg">
<path fill-rule="evenodd" clip-rule="evenodd" d="M11.8762 0.153343C11.5062 0.00134273 11.0362 0.00134277 10.0972 0.00134277C9.15824 0.00134277 8.68924 0.00134273 8.31824 0.153343C7.82569 0.355554 7.43362 0.745108 7.22824 1.23634C7.13424 1.45934 7.09824 1.72034 7.08324 2.09934C7.07657 2.37395 6.99997 2.64231 6.86069 2.87906C6.7214 3.11581 6.52403 3.31313 6.28724 3.45234C6.04598 3.58645 5.77478 3.65749 5.49877 3.65889C5.22275 3.66028 4.95084 3.59199 4.70824 3.46034C4.37024 3.28234 4.12524 3.18434 3.88324 3.15234C3.35379 3.08283 2.81831 3.22514 2.39324 3.54834C2.07524 3.79034 1.84024 4.19434 1.37124 5.00134C0.901239 5.80834 0.667239 6.21134 0.614239 6.60634C0.544239 7.13234 0.688239 7.66434 1.01424 8.08534C1.16224 8.27734 1.37124 8.43834 1.69424 8.64034C2.17124 8.93734 2.47724 9.44334 2.47724 10.0013C2.47724 10.5593 2.17124 11.0653 1.69524 11.3613C1.37124 11.5643 1.16224 11.7253 1.01324 11.9173C0.852322 12.1253 0.734209 12.3631 0.665724 12.6169C0.597239 12.8708 0.57974 13.1357 0.614239 13.3963C0.667239 13.7903 0.901239 14.1943 1.37124 15.0013C1.84124 15.8083 2.07524 16.2113 2.39324 16.4543C2.81724 16.7773 3.35324 16.9193 3.88324 16.8503C4.12524 16.8183 4.37024 16.7203 4.70824 16.5423C4.95096 16.4105 5.22306 16.3421 5.49927 16.3435C5.77548 16.3449 6.04686 16.4161 6.28824 16.5503C6.77424 16.8303 7.06224 17.3453 7.08324 17.9033C7.09824 18.2833 7.13424 18.5433 7.22824 18.7663C7.43224 19.2563 7.82424 19.6463 8.31824 19.8493C8.68824 20.0013 9.15824 20.0013 10.0972 20.0013C11.0362 20.0013 11.5062 20.0013 11.8762 19.8493C12.3688 19.6471 12.7609 19.2576 12.9662 18.7663C13.0602 18.5433 13.0962 18.2833 13.1112 17.9033C13.1312 17.3453 13.4202 16.8293 13.9072 16.5503C14.1485 16.4162 14.4197 16.3452 14.6957 16.3438C14.9717 16.3424 15.2436 16.4107 15.4862 16.5423C15.8242 16.7203 16.0692 16.8183 16.3112 16.8503C16.8412 16.9203 17.3772 16.7773 17.8012 16.4543C18.1192 16.2123 18.3542 15.8083 18.8232 15.0013C19.2932 14.1943 19.5272 13.7913 19.5802 13.3963C19.6146 13.1356 19.5969 12.8707 19.5283 12.6168C19.4596 12.3629 19.3413 12.1252 19.1802 11.9173C19.0322 11.7253 18.8232 11.5643 18.5002 11.3623C18.0232 11.0653 17.7172 10.5593 17.7172 10.0013C17.7172 9.44334 18.0232 8.93734 18.4992 8.64134C18.8232 8.43834 19.0322 8.27734 19.1812 8.08534C19.3422 7.8774 19.4603 7.63963 19.5288 7.38577C19.5972 7.13192 19.6147 6.867 19.5802 6.60634C19.5272 6.21234 19.2932 5.80834 18.8232 5.00134C18.3532 4.19434 18.1192 3.79134 17.8012 3.54834C17.3762 3.22514 16.8407 3.08283 16.3112 3.15234C16.0692 3.18434 15.8242 3.28234 15.4862 3.46034C15.2435 3.59217 14.9714 3.66056 14.6952 3.65916C14.419 3.65776 14.1476 3.58662 13.9062 3.45234C13.6696 3.313 13.4725 3.11564 13.3334 2.87889C13.1943 2.64215 13.1178 2.37385 13.1112 2.09934C13.0962 1.71934 13.0602 1.45934 12.9662 1.23634C12.8646 0.993079 12.716 0.772225 12.529 0.586401C12.342 0.400576 12.1202 0.253421 11.8762 0.153343ZM10.0972 13.0013C11.7672 13.0013 13.1202 11.6583 13.1202 10.0013C13.1202 8.34434 11.7662 7.00134 10.0972 7.00134C8.42724 7.00134 7.07424 8.34434 7.07424 10.0013C7.07424 11.6583 8.42824 13.0013 10.0972 13.0013Z" fill="#9E9FB4"/>
</svg>
