<svg width="21" height="22" viewBox="0 0 21 22" fill="none" xmlns="http://www.w3.org/2000/svg">
<path d="M10.1688 14.0013C11.8256 14.0013 13.1688 12.6582 13.1688 11.0013C13.1688 9.34449 11.8256 8.00134 10.1688 8.00134C8.51191 8.00134 7.16876 9.34449 7.16876 11.0013C7.16876 12.6582 8.51191 14.0013 10.1688 14.0013Z" stroke="#9E9FB4" stroke-width="1.5"/>
<path d="M1.82976 9.64134C2.30276 9.93734 2.60676 10.4433 2.60676 11.0013C2.60676 11.5593 2.30276 12.0653 1.82976 12.3613C1.50876 12.5643 1.30075 12.7253 1.15375 12.9173C0.993846 13.1258 0.876568 13.3637 0.808622 13.6174C0.740675 13.8712 0.72339 14.1359 0.757755 14.3963C0.809755 14.7903 1.04276 15.1943 1.50776 16.0013C1.97476 16.8083 2.20776 17.2113 2.52276 17.4543C2.73119 17.6143 2.96909 17.7315 3.22286 17.7995C3.47663 17.8674 3.7413 17.8847 4.00176 17.8503C4.24176 17.8183 4.48476 17.7203 4.82076 17.5423C5.06121 17.4107 5.33118 17.3424 5.60529 17.3438C5.8794 17.3452 6.14865 17.4163 6.38775 17.5503C6.87075 17.8303 7.15775 18.3453 7.17775 18.9033C7.19175 19.2833 7.22776 19.5433 7.32076 19.7663C7.42127 20.0092 7.56865 20.2298 7.75448 20.4156C7.94031 20.6014 8.16094 20.7488 8.40375 20.8493C8.77075 21.0013 9.23675 21.0013 10.1688 21.0013C11.1008 21.0013 11.5668 21.0013 11.9338 20.8493C12.1766 20.7488 12.3972 20.6014 12.583 20.4156C12.7689 20.2298 12.9162 20.0092 13.0168 19.7663C13.1088 19.5433 13.1458 19.2833 13.1598 18.9033C13.1798 18.3453 13.4668 17.8293 13.9498 17.5503C14.1889 17.4163 14.4581 17.3452 14.7322 17.3438C15.0063 17.3424 15.2763 17.4107 15.5168 17.5423C15.8528 17.7203 16.0968 17.8183 16.3368 17.8503C16.8624 17.9195 17.3941 17.777 17.8148 17.4543C18.1298 17.2123 18.3628 16.8083 18.8288 16.0013C19.0368 15.6413 19.1978 15.3623 19.3178 15.1283M18.5078 12.3623C18.2736 12.22 18.0795 12.0206 17.9436 11.7827C17.8077 11.5448 17.7344 11.2763 17.7308 11.0023C17.7308 10.4433 18.0348 9.93734 18.5078 9.64034C18.8288 9.43834 19.0358 9.27734 19.1838 9.08534C19.3437 8.87691 19.4609 8.63901 19.5289 8.38524C19.5968 8.13147 19.6141 7.86679 19.5798 7.60634C19.5278 7.21234 19.2948 6.80834 18.8298 6.00134C18.3628 5.19434 18.1298 4.79134 17.8148 4.54834C17.6063 4.38843 17.3684 4.27116 17.1146 4.20321C16.8609 4.13526 16.5962 4.11798 16.3358 4.15234C16.0958 4.18434 15.8528 4.28234 15.5158 4.46034C15.2754 4.59176 15.0056 4.65997 14.7317 4.65857C14.4578 4.65717 14.1887 4.58621 13.9498 4.45234C13.7142 4.31225 13.5181 4.11458 13.3799 3.87791C13.2418 3.64124 13.166 3.37333 13.1598 3.09934C13.1458 2.71934 13.1098 2.45934 13.0168 2.23634C12.9162 1.99352 12.7689 1.77289 12.583 1.58707C12.3972 1.40124 12.1766 1.25386 11.9338 1.15334C11.5668 1.00134 11.1008 1.00134 10.1688 1.00134C9.23675 1.00134 8.77075 1.00134 8.40375 1.15334C8.16094 1.25386 7.94031 1.40124 7.75448 1.58707C7.56865 1.77289 7.42127 1.99352 7.32076 2.23634C7.22876 2.45934 7.19175 2.71934 7.17775 3.09934C7.17152 3.37333 7.09576 3.64124 6.95757 3.87791C6.81938 4.11458 6.6233 4.31225 6.38775 4.45234C6.14865 4.58639 5.8794 4.65744 5.60529 4.65884C5.33118 4.66024 5.06121 4.59194 4.82076 4.46034C4.48476 4.28234 4.24075 4.18434 4.00075 4.15234C3.47507 4.08321 2.94346 4.22565 2.52276 4.54834C2.20876 4.79134 1.97475 5.19434 1.50875 6.00134C1.30075 6.36134 1.13976 6.64034 1.01976 6.87434" stroke="#9E9FB4" stroke-width="1.5" stroke-linecap="round"/>
</svg>
