<svg width="17" height="17" viewBox="0 0 17 17" fill="none" xmlns="http://www.w3.org/2000/svg">
<path d="M4.3281 5.54041C2.60614 5.93031 1.74516 6.12491 1.54006 6.78362C1.33567 7.44162 1.92225 8.12832 3.09613 9.50102L3.39992 9.85593C3.73311 10.2458 3.90041 10.4411 3.97531 10.6819C4.0502 10.9234 4.02501 11.1838 3.97461 11.7039L3.92841 12.1778C3.75131 14.0097 3.66241 14.9253 4.1986 15.332C4.73479 15.7394 5.54117 15.3677 7.15253 14.6257L7.57042 14.4339C8.02821 14.2225 8.25711 14.1175 8.5 14.1175C8.74289 14.1175 8.97179 14.2225 9.43028 14.4339L9.84677 14.6257C11.4588 15.3677 12.2652 15.7387 12.8007 15.3327C13.3376 14.9253 13.2487 14.0097 13.0716 12.1778M13.9039 9.50102C15.0777 8.12902 15.6643 7.44232 15.4599 6.78362C15.2548 6.12491 14.3939 5.92961 12.6719 5.54041L12.2267 5.43961C11.7374 5.32901 11.4931 5.27371 11.2964 5.12461C11.1004 4.97551 10.9744 4.74941 10.7224 4.29721L10.4929 3.88561C9.60597 2.2952 9.16288 1.5 8.5 1.5C7.83712 1.5 7.39403 2.2952 6.50715 3.88561" stroke="white" stroke-width="1.5" stroke-linecap="round"/>
</svg>
