<svg width="18" height="22" viewBox="0 0 18 22" fill="none" xmlns="http://www.w3.org/2000/svg">
<path d="M9.09744 9.00134C11.3066 9.00134 13.0974 7.21048 13.0974 5.00134C13.0974 2.7922 11.3066 1.00134 9.09744 1.00134C6.8883 1.00134 5.09744 2.7922 5.09744 5.00134C5.09744 7.21048 6.8883 9.00134 9.09744 9.00134Z" stroke="#9E9FB4" stroke-width="1.5"/>
<path d="M17.0954 17.0013C17.0974 16.8373 17.0974 16.6703 17.0974 16.5013C17.0974 14.0163 13.5154 12.0013 9.09744 12.0013C4.67944 12.0013 1.09744 14.0163 1.09744 16.5013C1.09744 18.9863 1.09744 21.0013 9.09744 21.0013C11.3284 21.0013 12.9374 20.8443 14.0974 20.5643" stroke="#9E9FB4" stroke-width="1.5" stroke-linecap="round"/>
</svg>
