<svg width="14" height="13" viewBox="0 0 14 13" fill="none" xmlns="http://www.w3.org/2000/svg">
<path d="M7.39453 12.5C10.7083 12.5 13.3945 9.8138 13.3945 6.5C13.3945 3.1862 10.7083 0.5 7.39453 0.5C4.08073 0.5 1.39453 3.1862 1.39453 6.5C1.39453 7.46 1.62013 8.3672 2.02033 9.1718C2.12713 9.3854 2.16253 9.6296 2.10073 9.8606L1.74373 11.1962C1.70837 11.3284 1.70841 11.4675 1.74382 11.5997C1.77924 11.7318 1.8488 11.8524 1.94552 11.9491C2.04224 12.0459 2.16271 12.1155 2.29485 12.151C2.42698 12.1866 2.56613 12.1867 2.69833 12.1514L4.03393 11.7938C4.26577 11.7354 4.51095 11.7638 4.72333 11.8736C5.55308 12.2868 6.46759 12.5012 7.39453 12.5Z" stroke="#9E9FB4"/>
</svg>
